<?xml version="1.0" standalone="no"?>
<!DOCTYPE svg PUBLIC "-//W3C//DTD SVG 1.1//EN" "http://www.w3.org/Graphics/SVG/1.1/DTD/svg11.dtd" >
<svg xmlns="http://www.w3.org/2000/svg" xmlns:xlink="http://www.w3.org/1999/xlink" version="1.1">
<metadata>
Created by FontForge 20150102 at Sat Jan 10 03:44:04 2015
 By uniteet7
Copyright (c) 2011, Denis Masharov &#60;denis.masharov@gmail.com&#62;, with Reserved Font Names "Kelly", "Kelly Slab".
</metadata>
<defs>
<font id="KellySlab-Regular" horiz-adv-x="542" >
  <font-face 
    font-family="Kelly Slab"
    font-weight="400"
    font-stretch="normal"
    units-per-em="1000"
    panose-1="2 0 0 0 0 0 0 0 0 0"
    ascent="800"
    descent="-200"
    x-height="500"
    cap-height="750"
    bbox="-40 -250 1120 962"
    underline-thickness="50"
    underline-position="-50"
    stemh="68"
    stemv="82"
    unicode-range="U+000D-F6C3"
  />
<missing-glyph horiz-adv-x="500" 
 />
    <glyph glyph-name=".notdef" horiz-adv-x="500" 
 />
    <glyph glyph-name="NULL" horiz-adv-x="0" 
 />
    <glyph glyph-name="NULL" horiz-adv-x="0" 
 />
    <glyph glyph-name="CR" unicode="&#xd;" horiz-adv-x="500" 
 />
    <glyph glyph-name="space" unicode=" " horiz-adv-x="350" 
 />
    <glyph glyph-name="E" unicode="E" horiz-adv-x="584" 
d="M351 493h68v-210h-68v71h-141v-286h256v117h68v-185h-469v68h63v614h-63v68h469v-185h-68v117h-256v-260h141v71z" />
    <glyph glyph-name="F" unicode="F" horiz-adv-x="584" 
d="M351 283v71h-141v-286h65v-68h-210v68h63v614h-63v68h469v-185h-68v117h-256v-260h141v71h68v-210h-68z" />
    <glyph glyph-name="G" unicode="G" 
d="M482 750v-185h-80v117h-260v-614h260v234l-139 -87v73l219 137v-425h-297c-93 0 -125 28 -125 124v511c0 61 23 115 107 115h315z" />
    <glyph glyph-name="I" unicode="I" horiz-adv-x="370" 
d="M225 682v-614h65v-68h-210v68h63v614h-63v68h210v-68h-65z" />
    <glyph glyph-name="J" unicode="J" horiz-adv-x="406" 
d="M341 750v-68h-65v-565c0 -54 -23 -117 -107 -117h-149v68h174v614h-64v68h211z" />
    <glyph glyph-name="K" unicode="K" horiz-adv-x="605" 
d="M511 68h64v-68h-114l-251 373v-305h65v-68h-210v68h63v614h-63v68h210v-68h-69v-279l255 347h108v-68h-67l-208 -292z" />
    <glyph glyph-name="L" unicode="L" horiz-adv-x="528" 
d="M65 0v68h63v614h-63v68h210v-68h-65v-614h210v117h68v-185h-423z" />
    <glyph glyph-name="M" unicode="M" horiz-adv-x="860" 
d="M128 682h-63v68h154l212 -437l210 437h154v-68h-63v-614h63v-68h-210v68h65v515l-189 -389h-63l-188 392v-518h65v-68h-210v68h63v614z" />
    <glyph glyph-name="N" unicode="N" horiz-adv-x="719" 
d="M654 750v-68h-63v-682h-98l-283 584v-516h65v-68h-210v68h63v614h-63v68h154l290 -596v528h-65v68h210z" />
    <glyph glyph-name="O" unicode="O" 
d="M171 750h195c81 0 116 -45 116 -133v-481c0 -95 -27 -136 -111 -136h-192c-92 0 -119 48 -119 121v496c0 83 20 133 111 133zM140 682v-614h262v614h-262z" />
    <glyph glyph-name="Q" unicode="Q" 
d="M171 750h195c81 0 116 -45 116 -133v-481c0 -95 -27 -136 -111 -136h-60v-60h-80v60h-52c-92 0 -119 48 -119 121v496c0 83 20 133 111 133zM231 68v50h80v-50h91v614h-262v-614h91z" />
    <glyph glyph-name="S" unicode="S" 
d="M140 522l248 -155c54 -38 94 -51 94 -106v-170c0 -64 -50 -91 -103 -91h-319v185h72v-117h270v195l-262 161c-47 26 -80 51 -80 100v126c0 83 37 100 111 100h302v-185h-72v117h-261v-160z" />
    <glyph glyph-name="T" unicode="T" horiz-adv-x="529" 
d="M160 0v68h63v614h-126v-118h-72v186h479v-186h-73v118h-126v-614h65v-68h-210z" />
    <glyph glyph-name="U" unicode="U" horiz-adv-x="682" 
d="M60 682v68h210v-68h-65v-614h272v614h-65v68h210v-68h-63v-578c0 -72 -30 -104 -90 -104h-257c-61 0 -89 36 -89 99v583h-63z" />
    <glyph glyph-name="V" unicode="V" horiz-adv-x="640" 
d="M25 682v68h183v-68h-52l165 -614l164 614h-63v68h193v-68h-54l-183 -682h-115l-182 682h-56z" />
    <glyph glyph-name="W" unicode="W" horiz-adv-x="836" 
d="M646 750h165v-68h-48l-107 -682h-130l-108 681l-108 -681h-130l-107 682h-48v68h165v-68h-40l95 -614l105 682h136l105 -682l95 614h-40v68z" />
    <glyph glyph-name="X" unicode="X" horiz-adv-x="590" 
d="M510 68h55v-68h-104l-165 312l-165 -312h-106v68h57l171 326l-151 288h-60v68h110l143 -276l145 276h108v-68h-59l-152 -288z" />
    <glyph glyph-name="Y" unicode="Y" horiz-adv-x="556" 
d="M372 750h159v-68h-38l-175 -313v-301h65v-68h-210v68h63v301l-166 313h-45v68h162v-68h-36l127 -244l130 244h-36v68z" />
    <glyph glyph-name="Z" unicode="Z" horiz-adv-x="521" 
d="M491 678l-375 -610h295v114h70v-182h-451v72l377 610h-279v-112h-71v180h434v-72z" />
    <glyph glyph-name="a" unicode="a" horiz-adv-x="493" 
d="M390 68h63v-68h-348c-69 0 -85 23 -85 88v37c0 48 7 59 68 96l220 137v74h-196v-58h-64v126h250c67 0 92 -30 92 -86v-346zM308 68v210l-208 -130v-80h208z" />
    <glyph glyph-name="b" unicode="b" horiz-adv-x="527" 
d="M185 389l170 107c16 10 33 14 50 14c41 0 72 -31 72 -86v-336c0 -48 -16 -88 -86 -88h-351v68h63v614h-63v68h145v-361zM397 68v374l-212 -133v-241h212z" />
    <glyph glyph-name="c" unicode="c" horiz-adv-x="426" 
d="M386 126v-126h-249c-71 0 -87 40 -87 88v324c0 56 31 89 95 89h241v-127h-68v58h-188v-364h188v58h68z" />
    <glyph glyph-name="d" unicode="d" horiz-adv-x="527" 
d="M424 69h63v-69h-145v115l-173 -109c-21 -11 -39 -16 -55 -16c-41 0 -64 31 -64 66v350c0 55 15 94 90 94h202v182h-66v68h148v-681zM342 195v237h-212v-369z" />
    <glyph glyph-name="e" unicode="e" horiz-adv-x="465" 
d="M130 139v-71h206v58h79v-53c0 -40 -23 -73 -80 -73h-205c-57 0 -80 33 -80 73v329c0 65 31 99 103 99h169c65 0 93 -22 93 -89v-93zM130 432v-212l205 129v83h-205z" />
    <glyph glyph-name="f" unicode="f" horiz-adv-x="332" 
d="M279 428h-81v-360h81v-68h-239v68h80v360h-80v72h80v146c0 75 29 104 89 104h83v-68h-94v-182h81v-72z" />
    <glyph glyph-name="g" unicode="g" horiz-adv-x="523" 
d="M483 432h-63v-565c0 -56 -25 -86 -92 -86h-242v136h68v-67h184v261l-171 -108c-15 -9 -30 -13 -45 -13c-40 0 -72 31 -72 71v351c0 63 16 88 85 88h348v-68zM338 192v240h-210v-372z" />
    <glyph glyph-name="h" unicode="h" horiz-adv-x="568" 
d="M464 68h64v-68h-193v68h48v370l-199 -125v-245h49v-68h-193v68h63v614h-63v68h144v-356l166 104c13 8 28 12 42 12c38 0 72 -28 72 -79v-363z" />
    <glyph glyph-name="i" unicode="i" horiz-adv-x="300" 
d="M195 500v-432h65v-68h-210v68h63v364h-63v68h145zM204 633c0 -30 -22 -52 -52 -52c-26 0 -49 22 -49 52c0 27 23 51 50 51c29 0 51 -24 51 -51z" />
    <glyph glyph-name="j" unicode="j" horiz-adv-x="264" 
d="M204 500v-614c0 -56 -25 -86 -92 -86h-122v69h132v563h-63v68h145zM204 633c0 -30 -22 -52 -52 -52c-26 0 -49 22 -49 52c0 27 23 51 50 51c29 0 51 -24 51 -51z" />
    <glyph glyph-name="k" unicode="k" horiz-adv-x="507" 
d="M435 68h52v-68h-86l-217 252v-184h60v-68h-204v68h64v614h-64v68h140v-474l228 224h78v-68h-55l-163 -167z" />
    <glyph glyph-name="l" unicode="l" horiz-adv-x="310" 
d="M195 750v-682h65v-68h-210v68h63v614h-63v68h145z" />
    <glyph glyph-name="o" unicode="o" horiz-adv-x="451" 
d="M318 0h-185c-68 0 -93 34 -93 89v322c0 53 18 89 93 89h185c73 0 93 -36 93 -89v-322c0 -55 -25 -89 -93 -89zM121 432v-364h209v364h-209z" />
    <glyph glyph-name="s" unicode="s" horiz-adv-x="439" 
d="M129 348l170 -106c55 -34 90 -48 90 -92v-62c0 -48 -18 -88 -86 -88h-242v151h68v-83h180v83l-164 103c-67 43 -95 47 -95 100v57c0 49 18 89 94 89h233v-150h-68v82h-180v-84z" />
    <glyph glyph-name="t" unicode="t" horiz-adv-x="317" 
d="M114 682h78v-182h81v-72h-81v-360h95v-68h-84c-60 0 -89 29 -89 104v324h-74v72h74v182z" />
    <glyph glyph-name="v" unicode="v" horiz-adv-x="513" 
d="M20 500h184v-68h-49l100 -364l102 364h-49v68h185v-68h-60l-121 -432h-111l-122 432h-59v68z" />
    <glyph glyph-name="w" unicode="w" horiz-adv-x="732" 
d="M20 432v68h159v-68h-44l81 -363l93 431h110l96 -433l82 365h-45v68h160v-68h-48l-95 -432h-107l-95 433l-97 -433h-112c0 1 -93 433 -95 432h-43z" />
    <glyph glyph-name="x" unicode="x" horiz-adv-x="508" 
d="M30 68h56l126 191l-115 173h-59v68h96l122 -180l114 180h98v-68h-56l-115 -173l125 -191h56v-68h-94l-128 199l-127 -199h-99v68z" />
    <glyph glyph-name="y" unicode="y" horiz-adv-x="515" 
d="M335 500h130v-633c0 -56 -25 -86 -92 -86h-231v136h68v-67h173v263l-176 -109c-15 -9 -31 -14 -46 -14c-31 0 -57 20 -57 65v377h-64v68h145v-431l199 125v238h-49v68z" />
    <glyph glyph-name="z" unicode="z" horiz-adv-x="452" 
d="M412 0h-372v69l277 363h-203v-71h-69v139h359v-71l-275 -361h213v69h70v-137z" />
    <glyph glyph-name="n" unicode="n" horiz-adv-x="568" 
d="M464 68h64v-68h-193v68h48v372l-199 -125v-247h49v-68h-193v68h63v365h-63v67h144v-104l166 104c11 7 23 10 36 10c40 0 78 -16 78 -77v-365z" />
    <glyph glyph-name="m" unicode="m" horiz-adv-x="817" 
d="M449 68h49v-68h-179v68h48l1 4v369l-184 -115v-258h49v-68h-193v68h63v365h-63v67h144v-95l151 95c11 7 23 10 36 10c40 0 78 -16 78 -77v-27l150 94c11 7 23 10 36 10c40 0 78 -16 78 -77v-365h64v-68h-193v68h48v372l-183 -114v-258z" />
    <glyph glyph-name="p" unicode="p" horiz-adv-x="527" 
d="M185 306v-238h212v371zM41 -250v68h62v613h-63v69h145v-114l173 109c16 10 33 15 50 15c37 0 69 -23 69 -65v-351c0 -55 -15 -94 -90 -94h-202v-182h66v-68h-210z" />
    <glyph glyph-name="q" unicode="q" horiz-adv-x="537" 
d="M130 432v-374l212 134v240h-212zM279 -250v68h63v293l-170 -107c-16 -10 -33 -14 -50 -14c-41 0 -72 31 -72 86v336c0 48 16 88 86 88h351v-68h-63v-614h63v-68h-208z" />
    <glyph glyph-name="u" unicode="u" horiz-adv-x="568" 
d="M104 433h-64v68h145v-433l199 125v240h-49v68h130v-433h63v-68h-144v112l-166 -104c-11 -7 -23 -10 -36 -10c-40 0 -78 16 -78 77v358z" />
    <glyph glyph-name="r" unicode="r" horiz-adv-x="461" 
d="M421 334h-81v97l-156 -99v-264h49v-68h-193v68h63v365h-63v68h144v-88l123 77c11 7 23 10 36 10c40 0 78 -16 78 -77v-89z" />
    <glyph glyph-name="C" unicode="C" horiz-adv-x="525" 
d="M407 68v117h68v-185h-307c-81 0 -108 48 -108 107v535c0 52 23 108 98 108h317v-185h-68v117h-265v-614h265z" />
    <glyph glyph-name="D" unicode="D" horiz-adv-x="604" 
d="M60 750h353c99 0 131 -43 131 -131v-488c0 -92 -42 -131 -131 -131h-353v68h63v614h-63v68zM462 68v614h-257v-614h257z" />
    <glyph glyph-name="P" unicode="P" horiz-adv-x="594" 
d="M422 750c88 0 112 -25 112 -124v-73c0 -83 -29 -91 -103 -137l-221 -138v-210h65v-68h-210v68h63v613h-63v69h357zM461 513v168h-251v-323z" />
    <glyph glyph-name="R" unicode="R" horiz-adv-x="646" 
d="M575 68h56v-68h-198v68h54l-171 275l-106 -65v-210h65v-68h-210v68h63v614h-63v68h357c88 0 112 -26 112 -125v-62c0 -100 -33 -105 -156 -181zM210 682v-324l251 155v169h-251z" />
    <glyph glyph-name="zero" unicode="0" horiz-adv-x="522" 
d="M171 750h175c81 0 116 -45 116 -133v-481c0 -95 -27 -136 -111 -136h-172c-92 0 -119 48 -119 121v496c0 83 20 133 111 133zM140 682v-614h242v614h-242z" />
    <glyph glyph-name="one" unicode="1" horiz-adv-x="350" 
d="M58 0v68h68v613h-96v69h86c67 0 92 -30 92 -86v-596h62v-68h-212z" />
    <glyph glyph-name="two" unicode="2" horiz-adv-x="525" 
d="M50 0v181c0 50 15 92 54 116l288 179v206h-263v-122h-78v190h291c99 0 132 -28 132 -116v-117c0 -37 -12 -76 -49 -99l-297 -188v-162h263v92h84v-160h-425z" />
    <glyph glyph-name="three" unicode="3" horiz-adv-x="514" 
d="M464 750v-68l-245 -244h129c89 0 115 -32 115 -117v-187c0 -89 -14 -134 -138 -134h-152c-115 0 -123 62 -123 137v53h73v-128h259v311h-259v65l248 244h-248v-70h-73v138h414z" />
    <glyph glyph-name="four" unicode="4" horiz-adv-x="519" 
d="M217 0v68h110v125h-317l316 557h81v-489h72v-68h-72v-125h72v-68h-262zM327 261v340l-194 -340h194z" />
    <glyph glyph-name="five" unicode="5" horiz-adv-x="518" 
d="M374 457c81 0 94 -36 94 -97v-239c0 -64 -15 -121 -119 -121h-186c-96 0 -113 50 -113 120v70h78v-122h259v321h-326v361h377v-68h-299v-225h235z" />
    <glyph glyph-name="eight" unicode="8" horiz-adv-x="525" 
d="M455 502c0 -52 -29 -91 -60 -93c32 -2 80 -38 80 -105v-170c0 -87 -42 -134 -141 -134h-147c-103 0 -137 47 -137 134v167c0 70 52 106 82 108c-29 2 -62 43 -62 93v129c0 66 29 119 115 119h157c82 0 113 -53 113 -119v-129zM393 68v300h-261v-300h261zM147 687v-244
h231v244h-231z" />
    <glyph glyph-name="six" unicode="6" horiz-adv-x="525" 
d="M387 611v76h-255v-244h218c98 0 125 -46 125 -113v-203c0 -87 -42 -127 -141 -127h-147c-103 0 -137 37 -137 124v507c0 66 34 119 120 119h184c81 0 101 -53 101 -117v-22h-68zM393 68v306h-261v-306h261z" />
    <glyph glyph-name="nine" unicode="9" horiz-adv-x="525" 
d="M132 139v-74h261v275h-218c-98 0 -125 46 -125 113v170c0 87 42 127 141 127h147c103 0 137 -37 137 -124v-507c0 -66 -34 -119 -120 -119h-190c-81 0 -115 53 -115 117v22h82zM132 682v-273h261v273h-261z" />
    <glyph glyph-name="seven" unicode="7" horiz-adv-x="455" 
d="M445 648l-324 -648h-91l342 682h-270v-149h-72v217h415v-102z" />
    <glyph glyph-name="uni0410" unicode="&#x410;" horiz-adv-x="641" 
d="M231 330h178l-89 352zM551 68h65v-68h-195v68h54l-50 199h-210l-50 -199h55v-68h-195v68h63l174 682h118z" />
    <glyph glyph-name="uni0411" unicode="&#x411;" horiz-adv-x="598" 
d="M205 513l230 -145c65 -40 103 -85 103 -142v-108c0 -93 -34 -118 -117 -118h-361v68h63v614h-63v68h452v-185h-68v117h-239v-169zM456 68v205l-251 158v-363h251z" />
    <glyph glyph-name="uni0413" unicode="&#x413;" horiz-adv-x="518" 
d="M205 682v-614h65v-68h-210v68h63v614h-63v68h433v-185h-68v117h-220z" />
    <glyph glyph-name="uni0414" unicode="&#x414;" horiz-adv-x="659" 
d="M117 68l218 614h-78v68h293v-682h79v-218h-80v150h-439v-150h-80v218h87zM469 68v614h-56l-216 -614h272z" />
    <glyph glyph-name="uni041A" unicode="&#x41a;" horiz-adv-x="585" 
d="M496 68h64v-68h-114l-251 373v-305h65v-68h-210v68h63v614h-63v68h210v-68h-69v-279l255 347h108v-68h-67l-208 -292z" />
    <glyph glyph-name="uni0416" unicode="&#x416;" horiz-adv-x="798" 
d="M711 68h57v-68h-102l-226 373v-305h65v-68h-210v68h63v304l-226 -372h-102v68h57l196 322l-187 292h-61v68h97l226 -341v273h-63v68h210v-68h-65v-273l226 341h97v-68h-60l-188 -292z" />
    <glyph glyph-name="uni0417" unicode="&#x417;" horiz-adv-x="545" 
d="M465 502c0 -52 -29 -91 -60 -93c32 -2 80 -38 80 -105v-170c0 -87 -42 -134 -141 -134h-147c-103 0 -137 47 -137 134v96h82v-162h261v299h-146v76h131v244h-251v-124h-77v68c0 66 29 119 115 119h177c82 0 113 -53 113 -119v-129z" />
    <glyph glyph-name="uni0418" unicode="&#x418;" horiz-adv-x="665" 
d="M550 682v-614h65v-68h-147v555l-300 -555h-118v68h64v614h-64v68h145v-549l297 549h123v-68h-65z" />
    <glyph glyph-name="uni041B" unicode="&#x41b;" horiz-adv-x="636" 
d="M542 69h59v-69h-200v69h59v613h-55l-206 -583c-16 -60 -51 -99 -116 -99h-58v68h87l218 614h-79v68h291v-681z" />
    <glyph glyph-name="uni041D" unicode="&#x41d;" horiz-adv-x="668" 
d="M618 682h-63v-614h63v-68h-206v68h61v286h-278v-286h61v-68h-206v68h63v614h-63v68h206v-68h-61v-261h278v261h-61v68h206v-68z" />
    <glyph glyph-name="uni041E" unicode="&#x41e;" 
d="M171 750h195c81 0 116 -45 116 -133v-481c0 -95 -27 -136 -111 -136h-192c-92 0 -119 48 -119 121v496c0 83 20 133 111 133zM140 682v-614h262v614h-262z" />
    <glyph glyph-name="uni0420" unicode="&#x420;" horiz-adv-x="579" 
d="M407 750c88 0 112 -25 112 -124v-73c0 -83 -29 -91 -103 -137l-221 -138v-210h65v-68h-210v68h63v613h-63v69h357zM446 513v168h-251v-323z" />
    <glyph glyph-name="uni0421" unicode="&#x421;" horiz-adv-x="535" 
d="M407 68v117h68v-185h-307c-81 0 -108 48 -108 107v535c0 52 23 108 98 108h317v-185h-68v117h-265v-614h265z" />
    <glyph glyph-name="uni0422" unicode="&#x422;" horiz-adv-x="529" 
d="M160 0v68h63v614h-126v-118h-72v186h479v-186h-73v118h-126v-614h65v-68h-210z" />
    <glyph glyph-name="uni041F" unicode="&#x41f;" horiz-adv-x="678" 
d="M618 682h-63v-614h63v-68h-206v68h61v614h-268v-614h61v-68h-206v68h63v614h-63v68h558v-68z" />
    <glyph glyph-name="uni0423" unicode="&#x423;" horiz-adv-x="596" 
d="M260 161l-184 521h-51v68h174v-68h-52l150 -419l148 419h-67v68h193v-68h-53l-206 -583c-22 -62 -51 -99 -116 -99h-56v68h87z" />
    <glyph glyph-name="uni0424" unicode="&#x424;" horiz-adv-x="671" 
d="M513 628c100 0 118 -53 118 -138v-227c0 -92 -31 -128 -132 -128h-124v-67h69v-68h-212v68h65v67h-126c-100 0 -131 36 -131 128v227c0 85 18 138 117 138h140v53h-67v68h210v-68h-67v-53h140zM121 204h176v358h-176v-358zM549 204v358h-176v-358h176z" />
    <glyph glyph-name="uni0425" unicode="&#x425;" horiz-adv-x="590" 
d="M510 68h55v-68h-104l-165 312l-165 -312h-106v68h57l171 326l-151 288h-60v68h110l143 -276l145 276h108v-68h-59l-152 -288z" />
    <glyph glyph-name="uni0426" unicode="&#x426;" horiz-adv-x="665" 
d="M545 682v-614h80v-218h-80v150h-495v68h63v614h-63v68h206v-68h-61v-615h268v615h-61v68h206v-68h-63z" />
    <glyph glyph-name="uni0427" unicode="&#x427;" horiz-adv-x="612" 
d="M562 682h-62v-614h62v-68h-209v68h65v209l-219 138c-55 34 -110 66 -110 148v119h-64v68h208v-68h-65v-167l250 -157v324h-65v68h209v-68z" />
    <glyph glyph-name="uni0428" unicode="&#x428;" horiz-adv-x="929" 
d="M50 750h209v-68h-64v-614h230v614h-65v68h208v-68h-63v-614h229v614h-65v68h210v-68h-64v-614h64v-68h-829v68h64v614h-64v68z" />
    <glyph glyph-name="uni0429" unicode="&#x429;" horiz-adv-x="945" 
d="M815 682v-614h80v-218h-80v150h-765v68h64v614h-64v68h209v-68h-64v-614h230v614h-65v68h208v-68h-63v-614h229v614h-65v68h210v-68h-64z" />
    <glyph glyph-name="uni042C" unicode="&#x42c;" horiz-adv-x="549" 
d="M195 463l230 -145c65 -40 94 -85 94 -142v-58c0 -93 -24 -118 -95 -118h-374v68h63v614h-63v68h215v-68h-70v-219zM446 68v155l-251 158v-313h251z" />
    <glyph glyph-name="uni042D" unicode="&#x42d;" horiz-adv-x="499" 
d="M356 750c74 0 103 -36 103 -98v-554c0 -51 -31 -98 -103 -98h-316v185h72v-117h265v287h-227v67h227v260h-265v-117h-72v185h316z" />
    <glyph glyph-name="uni042E" unicode="&#x42e;" horiz-adv-x="789" 
d="M457 750h156c81 0 116 -45 116 -133v-481c0 -95 -27 -136 -111 -136h-153c-92 0 -119 48 -119 121v233h-151v-286h65v-68h-210v68h63v614h-63v68h210v-68h-65v-261h151v196c0 83 20 133 111 133zM426 682v-614h223v614h-223z" />
    <glyph glyph-name="uni042A" unicode="&#x42a;" horiz-adv-x="653" 
d="M50 565v185h319v-68h-70v-219l230 -145c65 -40 94 -85 94 -142v-58c0 -93 -24 -118 -95 -118h-374v68h63v614h-99v-117h-68zM550 68v155l-251 158v-313h251z" />
    <glyph glyph-name="uni042B" unicode="&#x42b;" horiz-adv-x="844" 
d="M195 463l230 -145c65 -40 94 -85 94 -142v-58c0 -93 -24 -118 -95 -118h-374v68h63v614h-63v68h215v-68h-70v-219zM446 68v155l-251 158v-313h251zM729 682v-614h65v-68h-210v68h63v614h-63v68h210v-68h-65z" />
    <glyph glyph-name="uni0431" unicode="&#x431;" horiz-adv-x="471" 
d="M338 750h81v-30c0 -51 -32 -72 -82 -103l-206 -129v-90l150 94c21 13 40 18 58 18c48 0 82 -39 82 -78v-344c0 -55 -25 -89 -93 -89h-185c-68 0 -93 34 -93 89v352c0 53 22 92 80 129l208 130v51zM340 449l-209 -130v-252h209v382z" />
    <glyph glyph-name="uni0430" unicode="&#x430;" horiz-adv-x="498" 
d="M395 68h63v-68h-348c-69 0 -85 23 -85 88v37c0 48 7 59 68 96l220 137v74h-196v-58h-64v126h250c67 0 92 -30 92 -86v-346zM313 68v210l-208 -130v-80h208z" />
    <glyph glyph-name="uni0432" unicode="&#x432;" horiz-adv-x="502" 
d="M352 476l4 3c15 9 33 13 49 13c38 0 72 -28 72 -86v-318c0 -47 -15 -88 -89 -88h-348v68h63v614h-62v68h209c70 0 102 -33 102 -89v-185zM185 371l86 54v254h-86v-308zM397 69v355l-212 -133v-222h212z" />
    <glyph glyph-name="uni0433" unicode="&#x433;" horiz-adv-x="442" 
d="M50 0v67h65v362h-65v71h367v-164h-70v93h-156v-362h77v-67h-218z" />
    <glyph glyph-name="uni0435" unicode="&#x435;" horiz-adv-x="465" 
d="M130 139v-71h206v58h79v-53c0 -40 -23 -73 -80 -73h-205c-57 0 -80 33 -80 73v329c0 65 31 99 103 99h169c65 0 93 -22 93 -89v-93zM130 432v-212l205 129v83h-205z" />
    <glyph glyph-name="uni043A" unicode="&#x43a;" horiz-adv-x="517" 
d="M45 432v68h204v-68h-64v-156l228 224h78v-68h-55l-163 -167l167 -197h52v-68h-86l-217 252v-184h60v-68h-204v68h64v364h-64z" />
    <glyph glyph-name="uni0436" unicode="&#x436;" horiz-adv-x="656" 
d="M584 68h47v-68h-77l-188 252v-184h64v-68h-204v68h64v184l-188 -252h-77v68h47l139 197l-136 167h-49v68h70l194 -224v156h-64v68h204v-68h-64v-156l194 224h70v-68h-49l-136 -167z" />
    <glyph glyph-name="uni043C" unicode="&#x43c;" horiz-adv-x="712" 
d="M667 68v-68h-209v68h69v361l-149 -310h-48l-145 305v-356h69v-68h-209v68h65v364h-65v68h179l132 -276l133 276h178v-68h-65v-364h65z" />
    <glyph glyph-name="uni043E" unicode="&#x43e;" horiz-adv-x="471" 
d="M328 0h-185c-68 0 -93 34 -93 89v322c0 53 18 89 93 89h185c73 0 93 -36 93 -89v-322c0 -55 -25 -89 -93 -89zM131 432v-364h209v364h-209z" />
    <glyph glyph-name="uni043D" unicode="&#x43d;" horiz-adv-x="601" 
d="M356 0v68h58v154h-228v-154h58v-68h-199v68h64v362h-64v70h199v-70h-58v-136h228v136h-58v70h200v-70h-64v-362h64v-68h-200z" />
    <glyph glyph-name="uni043F" unicode="&#x43f;" horiz-adv-x="586" 
d="M341 0v68h58v362h-213v-362h58v-68h-199v68h64v362h-64v70h496v-70h-64v-362h64v-68h-200z" />
    <glyph glyph-name="uni0440" unicode="&#x440;" horiz-adv-x="532" 
d="M190 306v-238h212v371zM46 -250v68h62v613h-63v69h145v-114l173 109c16 10 33 15 50 15c37 0 69 -23 69 -65v-351c0 -55 -15 -94 -90 -94h-202v-182h66v-68h-210z" />
    <glyph glyph-name="uni0441" unicode="&#x441;" horiz-adv-x="436" 
d="M386 126v-126h-249c-71 0 -87 40 -87 88v324c0 56 31 89 95 89h241v-127h-68v58h-188v-364h188v58h68z" />
    <glyph glyph-name="uni0442" unicode="&#x442;" horiz-adv-x="445" 
d="M105 0v68h78v361h-88v-93h-70v164h395v-164h-68v93h-90v-361h78v-68h-235z" />
    <glyph glyph-name="uni0445" unicode="&#x445;" horiz-adv-x="498" 
d="M25 68h56l126 191l-115 173h-59v68h96l122 -180l114 180h98v-68h-56l-115 -173l125 -191h56v-68h-94l-128 199l-127 -199h-99v68z" />
    <glyph glyph-name="uni0434" unicode="&#x434;" horiz-adv-x="535" 
d="M515 -137h-72v137h-353v-137h-70v204h69l148 363h-69v70h274v-433h73v-204zM367 67v363h-54l-147 -363h201z" />
    <glyph glyph-name="uni043B" unicode="&#x43b;" horiz-adv-x="562" 
d="M452 67h65v-67h-207v67h66v363h-62l-128 -341c-21 -57 -47 -89 -105 -89h-56v67h78l140 363h-67v70h276v-433z" />
    <glyph glyph-name="uni0437" unicode="&#x437;" horiz-adv-x="435" 
d="M377 333c0 -31 -19 -72 -66 -74c49 -1 74 -22 74 -66v-105c0 -47 -8 -88 -85 -88h-250v146h67v-78h191v157h-138v66h129v140h-182v-77h-67v146h232c75 0 95 -33 95 -89v-78z" />
    <glyph glyph-name="uni0438" unicode="&#x438;" horiz-adv-x="591" 
d="M482 430v-362h64v-68h-142v369l-219 -369h-140v70h64v360h-64v70h141v-366l218 366h142v-70h-64z" />
    <glyph glyph-name="uni0443" unicode="&#x443;" horiz-adv-x="529" 
d="M326 500h183v-68h-60l-176 -593c-17 -57 -38 -89 -96 -89h-63v67h78l45 154l-151 461h-61v68h182v-68h-47l112 -342l102 342h-48v68z" />
    <glyph glyph-name="uni0446" unicode="&#x446;" horiz-adv-x="581" 
d="M479 -134v134h-434v70h64v362h-64v68h200v-68h-58v-362h213v362h-58v68h199v-68h-64v-362h74v-204h-72z" />
    <glyph glyph-name="uni0444" unicode="&#x444;" horiz-adv-x="624" 
d="M487 500c75 0 87 -36 87 -90v-322c0 -52 -8 -88 -88 -88h-136v-142h72v-68h-219v68h72v142h-131c-73 0 -94 36 -94 88v322c0 54 26 90 94 90h131v141h-72v69h219v-69h-72v-141h137zM275 67v362h-150v-362h150zM502 67v362h-152v-362h152z" />
    <glyph glyph-name="uni0447" unicode="&#x447;" horiz-adv-x="548" 
d="M298 0v67h63v188l-144 -92c-18 -11 -36 -17 -52 -17c-40 0 -72 31 -72 67v216h-63v71h197v-71h-57v-215l191 119v96h-58v71h200v-71h-63v-362h63v-67h-205z" />
    <glyph glyph-name="uni0448" unicode="&#x448;" horiz-adv-x="812" 
d="M703 429v-358h64v-71h-722v71h64v358h-64v71h197v-71h-56v-358h181v358h-56v71h189v-71h-56v-358h182v358h-56v71h197v-71h-64z" />
    <glyph glyph-name="uni0449" unicode="&#x449;" horiz-adv-x="816" 
d="M704 -133v133h-659v71h64v358h-64v71h197v-71h-56v-358h181v358h-56v71h189v-71h-56v-358h182v358h-56v71h197v-71h-64v-358h73v-204h-72z" />
    <glyph glyph-name="uni044C" unicode="&#x44c;" horiz-adv-x="518" 
d="M50 0v71h64v358h-64v71h210v-71h-67v-199l166 105c16 10 32 15 46 15c36 0 63 -28 63 -69v-193c0 -50 -8 -88 -88 -88h-330zM389 68v205l-196 -123v-82h196z" />
    <glyph glyph-name="uni044A" unicode="&#x44a;" horiz-adv-x="555" 
d="M30 336v164h287v-71h-67v-199l166 105c16 10 32 15 46 15c36 0 63 -28 63 -69v-193c0 -50 -8 -88 -88 -88h-330v71h64v358h-71v-93h-70zM446 68v205l-196 -123v-82h196z" />
    <glyph glyph-name="uni044B" unicode="&#x44b;" horiz-adv-x="784" 
d="M45 0v71h65v358h-65v71h210v-71h-67v-199l166 105c16 10 32 15 46 15c36 0 63 -28 63 -69v-193c0 -50 -8 -88 -88 -88h-330zM674 432v-364h65v-68h-210v68h63v364h-63v68h210v-68h-65zM384 68v205l-196 -123v-82h196z" />
    <glyph glyph-name="uni044D" unicode="&#x44d;" horiz-adv-x="435" 
d="M308 68v157h-138v66h138v140h-191v-77h-67v146h241c75 0 94 -33 94 -89v-323c0 -47 -8 -88 -85 -88h-250v146h67v-78h191z" />
    <glyph glyph-name="uni044E" unicode="&#x44e;" horiz-adv-x="703" 
d="M560 0h-155c-68 0 -93 34 -93 89v133h-126v-154h58v-68h-199v68h64v362h-64v70h199v-70h-58v-136h126v117c0 53 18 89 93 89h155c73 0 93 -36 93 -89v-322c0 -55 -25 -89 -93 -89zM393 432v-364h179v364h-179z" />
    <glyph glyph-name="uni044F" unicode="&#x44f;" horiz-adv-x="508" 
d="M467 432h-62v-365h62v-67h-195v67h55v73l-83 54l-69 -105c-33 -51 -44 -89 -102 -89h-58v67h63l107 165l-58 38c-33 21 -62 40 -62 93v59c0 56 45 78 95 78h307v-68zM327 212v220h-187v-98z" />
    <glyph glyph-name="exclam" unicode="!" horiz-adv-x="301" 
d="M191 193h-82v534h82v-534zM201 47c0 -29 -22 -51 -51 -51c-26 0 -50 22 -50 51c0 27 24 52 51 52c28 0 50 -25 50 -52z" />
    <glyph glyph-name="B" unicode="B" horiz-adv-x="557" 
d="M372 476l4 3c15 9 33 13 49 13c38 0 72 -28 72 -86v-318c0 -47 -15 -88 -89 -88h-348v68h63v615h-62v67h209c70 0 102 -33 102 -89v-185zM205 371l86 54v258h-86v-312zM417 69v355l-212 -133v-222h212z" />
    <glyph glyph-name="H" unicode="H" horiz-adv-x="698" 
d="M633 682h-63v-614h63v-68h-206v68h61v286h-278v-286h61v-68h-206v68h63v614h-63v68h206v-68h-61v-261h278v261h-61v68h206v-68z" />
    <glyph glyph-name="A" unicode="A" horiz-adv-x="641" 
d="M231 330h178l-89 352zM551 68h65v-68h-195v68h54l-50 199h-210l-50 -199h55v-68h-195v68h63l174 682h118z" />
    <glyph glyph-name="quotedbl" unicode="&#x22;" horiz-adv-x="326" 
d="M286 510h-82v240h82v-240zM122 510h-82v240h82v-240z" />
    <glyph glyph-name="numbersign" unicode="#" horiz-adv-x="767" 
d="M727 423h-202l-27 -102h201l-18 -73h-203l-63 -248h-81l64 248h-130l-65 -248h-79l67 248h-171l20 73h169l26 102h-168l20 77h168l64 250h78l-64 -250h131l64 250h80l-63 -250h202zM444 423h-129l-29 -102h131z" />
    <glyph glyph-name="bar" unicode="|" horiz-adv-x="270" 
d="M170 -151h-70v1022h70v-1022z" />
    <glyph glyph-name="dollar" unicode="$" horiz-adv-x="582" 
d="M326 -150h-70v150h-176v185h72v-117h104v297l-96 59c-47 26 -80 51 -80 100v126c0 83 37 100 111 100h65v150h70v-150h167v-185h-72v117h-95v-264l82 -51c54 -38 94 -51 94 -106v-170c0 -64 -50 -91 -103 -91h-73v-150zM422 263l-96 59v-254h96v195zM160 522l96 -60v220
h-96v-160z" />
    <glyph glyph-name="percent" unicode="%" horiz-adv-x="825" 
d="M332 439c0 -97 -10 -126 -112 -126h-40c-94 0 -120 18 -120 114v215c0 93 28 116 114 116h36c107 0 122 -28 122 -128v-191zM132 377h130v315h-130v-315zM640 443c108 0 125 -26 125 -128v-192c0 -96 -12 -123 -115 -123h-38c-94 0 -121 18 -121 115v216
c0 88 30 112 115 112h34zM694 66v315h-130v-315h130zM198 -151l333 1021h77l-332 -1021h-78z" />
    <glyph glyph-name="backslash" unicode="\" horiz-adv-x="419" 
d="M337 -150l-332 1020h78l331 -1020h-77z" />
    <glyph glyph-name="ampersand" unicode="&#x26;" horiz-adv-x="726" 
d="M686 40l-55 -46l-144 167v-37c0 -87 -15 -125 -116 -125h-191c-118 0 -120 30 -120 141v134l194 166l-92 110v81c0 87 8 125 109 125h65c118 0 127 -30 127 -141v-92l-108 -87l85 -102l119 98l48 -54l-120 -99zM231 571l80 -81l85 69v58c0 60 -1 71 -60 71h-43
c-57 0 -62 -10 -62 -62v-55zM360 67c57 0 58 10 58 62v114l-120 147l-171 -152v-100c0 -60 5 -71 64 -71h169z" />
    <glyph glyph-name="quotesingle" unicode="'" horiz-adv-x="202" 
d="M142 511h-82v239h82v-239z" />
    <glyph glyph-name="parenleft" unicode="(" horiz-adv-x="273" 
d="M263 -103v-48c-150 0 -183 141 -183 273v508c0 127 35 240 183 240v-51c-76 0 -113 -73 -113 -191v-501c0 -127 33 -230 113 -230z" />
    <glyph glyph-name="parenright" unicode=")" horiz-adv-x="273" 
d="M10 822v48c150 0 183 -141 183 -273v-508c0 -127 -35 -240 -183 -240v51c76 0 113 73 113 191v501c0 127 -33 230 -113 230z" />
    <glyph glyph-name="asterisk" unicode="*" horiz-adv-x="407" 
d="M367 651l-105 -59l103 -59l-29 -50l-104 55v-119h-58v120l-105 -57l-29 56l101 54l-99 60l27 51l105 -60v118h58v-118l106 58z" />
    <glyph glyph-name="plus" unicode="+" horiz-adv-x="604" 
d="M337 420h187v-66h-187v-187h-70v187h-187v66h187v189h70v-189z" />
    <glyph glyph-name="hyphen" unicode="-" horiz-adv-x="451" 
d="M80 420h291v-66h-291v66z" />
    <glyph glyph-name="endash" unicode="&#x2013;" horiz-adv-x="604" 
d="M80 420h444v-66h-444v66z" />
    <glyph glyph-name="emdash" unicode="&#x2014;" horiz-adv-x="732" 
d="M80 420h581v-66h-581v66z" />
    <glyph glyph-name="period" unicode="." horiz-adv-x="221" 
d="M161 47c0 -29 -22 -51 -51 -51c-26 0 -50 22 -50 51c0 27 24 52 51 52c28 0 50 -25 50 -52z" />
    <glyph glyph-name="slash" unicode="/" horiz-adv-x="419" 
d="M5 -150l332 1020h77l-331 -1020h-78z" />
    <glyph glyph-name="colon" unicode=":" horiz-adv-x="221" 
d="M161 47c0 -29 -22 -51 -51 -51c-26 0 -50 22 -50 51c0 27 24 52 51 52c28 0 50 -25 50 -52zM161 406c0 -30 -22 -52 -51 -52c-26 0 -50 22 -50 52c0 28 24 52 51 52c28 0 50 -24 50 -52z" />
    <glyph glyph-name="semicolon" unicode=";" horiz-adv-x="242" 
d="M171 98l-78 -248h-73l77 248h74zM182 406c0 -30 -24 -52 -53 -52c-26 0 -50 22 -50 52c0 28 24 52 51 52c28 0 52 -24 52 -52z" />
    <glyph glyph-name="comma" unicode="," horiz-adv-x="231" 
d="M171 98l-78 -248h-73l77 248h74z" />
    <glyph glyph-name="less" unicode="&#x3c;" horiz-adv-x="541" 
d="M511 123l-451 218v76l451 217v-69l-378 -186l378 -187v-69z" />
    <glyph glyph-name="equal" unicode="=" horiz-adv-x="564" 
d="M484 427h-404v65h404v-65zM484 274h-404v64h404v-64z" />
    <glyph glyph-name="greater" unicode="&#x3e;" horiz-adv-x="541" 
d="M481 341l-451 -218v69l378 187c-123 60 -254 126 -378 186v69c152 -72 299 -144 451 -217v-76z" />
    <glyph glyph-name="question" unicode="?" horiz-adv-x="481" 
d="M93 682v-114h-73v182h269c73 0 112 -23 112 -107v-193c0 -62 -29 -102 -94 -102h-129v-154h-80v135c0 62 30 88 95 88h122v265h-222zM138 99c28 0 51 -25 51 -52c0 -29 -23 -51 -52 -51c-27 0 -50 22 -50 51c0 27 23 52 51 52z" />
    <glyph glyph-name="bracketleft" unicode="[" horiz-adv-x="259" 
d="M254 -149h-102c-48 0 -72 17 -72 65v888c0 48 24 66 72 66h102v-49h-104v-920h104v-50z" />
    <glyph glyph-name="bracketright" unicode="]" horiz-adv-x="259" 
d="M5 870h102c48 0 72 -17 72 -65v-888c0 -48 -24 -66 -72 -66h-102v49h104v920h-104v50z" />
    <glyph glyph-name="braceleft" unicode="{" horiz-adv-x="329" 
d="M211 523c0 -67 -25 -130 -103 -162c78 -32 103 -95 103 -162v-121c0 -106 6 -188 108 -188v-41c-162 0 -176 75 -176 207v143c0 60 -24 113 -93 142v40c69 29 93 82 93 142v143c0 132 14 207 176 207v-41c-102 0 -108 -82 -108 -188v-121z" />
    <glyph glyph-name="braceright" unicode="}" horiz-adv-x="329" 
d="M118 523v121c0 106 -6 188 -108 188v41c162 0 176 -75 176 -207v-143c0 -60 24 -113 93 -142v-40c-69 -29 -93 -82 -93 -142v-143c0 -132 -14 -207 -176 -207v41c102 0 108 82 108 188v121c0 67 25 130 103 162c-78 32 -103 95 -103 162z" />
    <glyph glyph-name="asciicircum" unicode="^" horiz-adv-x="596" 
d="M334 750l182 -375h-69l-146 304l-151 -304h-70l192 375h62z" />
    <glyph glyph-name="underscore" unicode="_" 
d="M5 -112v40h532v-40h-532z" />
    <glyph glyph-name="asciitilde" unicode="~" horiz-adv-x="595" 
d="M516 371l39 -36c-37 -45 -85 -92 -143 -92c-60 0 -172 77 -228 77c-42 0 -61 -19 -99 -67l-45 34c21 29 75 98 142 98c85 0 181 -79 229 -79c49 0 81 36 105 65z" />
    <glyph glyph-name="daggerdbl" unicode="&#x2021;" horiz-adv-x="549" 
d="M509 60h-196v-257h-76v257h-197v68h197v292h-197v67h197v263h76v-263h196v-67h-196v-292h196v-68z" />
    <glyph glyph-name="dagger" unicode="&#x2020;" horiz-adv-x="549" 
d="M313 420v-617h-76v617h-197v67h197v263h76v-263h196v-67h-196z" />
    <glyph glyph-name="quoteleft" unicode="&#x2018;" horiz-adv-x="177" 
d="M151 750l-76 -240h-73l75 240h74z" />
    <glyph glyph-name="quoteright" unicode="&#x2019;" horiz-adv-x="177" 
d="M151 750l-76 -240h-73l75 240h74z" />
    <glyph glyph-name="quotedblleft" unicode="&#x201c;" horiz-adv-x="343" 
d="M151 750l-76 -240h-73l75 240h74zM328 750l-76 -240h-73l75 240h74z" />
    <glyph glyph-name="quotedblright" unicode="&#x201d;" horiz-adv-x="343" 
d="M151 750l-76 -240h-73l75 240h74zM328 750l-76 -240h-73l75 240h74z" />
    <glyph glyph-name="bullet" unicode="&#x2022;" horiz-adv-x="414" 
d="M87 382c0 70 57 127 129 128c70 0 126 -57 126 -128c-1 -72 -56 -130 -126 -130c-71 0 -128 58 -129 130z" />
    <glyph glyph-name="quotesinglbase" unicode="&#x201a;" horiz-adv-x="189" 
d="M159 91l-76 -240h-73l75 240h74z" />
    <glyph glyph-name="quotedblbase" unicode="&#x201e;" horiz-adv-x="366" 
d="M159 90l-76 -240h-73l75 240h74zM336 90l-76 -240h-73l75 240h74z" />
    <glyph glyph-name="ellipsis" unicode="&#x2026;" horiz-adv-x="609" 
d="M141 47c0 -29 -22 -51 -51 -51c-26 0 -50 22 -50 51c0 27 24 52 51 52c28 0 50 -25 50 -52zM355 47c0 -29 -22 -51 -51 -51c-26 0 -50 22 -50 51c0 27 24 52 51 52c28 0 50 -25 50 -52zM569 47c0 -29 -22 -51 -51 -51c-26 0 -50 22 -50 51c0 27 24 52 51 52
c28 0 50 -25 50 -52z" />
    <glyph glyph-name="uni040F" unicode="&#x40f;" horiz-adv-x="698" 
d="M210 682v-614h268v614h-61v68h206v-68h-63v-614h63v-68h-239v-150h-80v150h-239v68h63v614h-63v68h206v-68h-61z" />
    <glyph glyph-name="uni045F" unicode="&#x45f;" horiz-adv-x="603" 
d="M200 432v-362h213v362h-58v68h200v-68h-64v-362h64v-70h-212v-134h-72v134h-212v70h64v362h-64v68h199v-68h-58z" />
    <glyph glyph-name="guillemotleft" unicode="&#xab;" horiz-adv-x="443" 
d="M114 270l127 -156l-55 -41l-156 197l154 212l57 -40zM306 270l127 -156l-55 -41l-156 197l154 212l57 -40z" />
    <glyph glyph-name="guillemotright" unicode="&#xbb;" horiz-adv-x="443" 
d="M329 285l-127 156l55 41l156 -197l-154 -212l-57 40zM137 285l-127 156l55 41l156 -197l-154 -212l-57 40z" />
    <glyph glyph-name="guilsinglleft" unicode="&#x2039;" horiz-adv-x="251" 
d="M114 270l127 -156l-55 -41l-156 197l154 212l57 -40z" />
    <glyph glyph-name="guilsinglright" unicode="&#x203a;" horiz-adv-x="251" 
d="M137 285l-127 156l55 41l156 -197l-154 -212l-57 40z" />
    <glyph glyph-name="logicalnot" unicode="&#xac;" horiz-adv-x="649" 
d="M493 83v271h-450v67h523v-338h-73z" />
    <glyph glyph-name="uni00AD" unicode="&#xad;" horiz-adv-x="376" 
d="M325 238h-273v63h273v-63z" />
    <glyph glyph-name="plusminus" unicode="&#xb1;" horiz-adv-x="604" 
d="M337 486h187v-66h-187v-167h-70v167h-187v66h187v170h70v-170zM80 121v66h444v-66h-444z" />
    <glyph glyph-name="uni0402" unicode="&#x402;" horiz-adv-x="686" 
d="M494 421c65 0 117 -30 117 -120v-350c0 -61 -51 -100 -117 -100h-65v69h101v434h-224v-286h64v-68h-210v68h64v614h-127v-145h-72v213h479v-213h-72v145h-126v-261h188z" />
    <glyph glyph-name="perthousand" unicode="&#x2030;" horiz-adv-x="1180" 
d="M332 439c0 -97 -10 -126 -112 -126h-40c-94 0 -120 18 -120 114v215c0 93 28 116 114 116h36c107 0 122 -28 122 -128v-191zM132 377h130v315h-130v-315zM640 443c108 0 125 -26 125 -128v-192c0 -96 -12 -123 -115 -123h-38c-94 0 -121 18 -121 115v216
c0 88 30 112 115 112h34zM694 66v315h-130v-315h130zM198 -151l333 1021h77l-332 -1021h-78zM995 443c108 0 125 -26 125 -128v-192c0 -96 -12 -123 -115 -123h-38c-94 0 -121 18 -121 115v216c0 88 30 112 115 112h34zM1049 66v315h-130v-315h130z" />
    <glyph glyph-name="Euro" unicode="&#x20ac;" horiz-adv-x="565" 
d="M40 434v67h60v141c0 52 23 108 98 108h317v-135h-68v67h-265v-181h248v-67h-248v-107h248v-67h-248v-192h265v64h68v-132h-307c-81 0 -108 48 -108 107v153h-60v67h60v107h-60z" />
    <glyph glyph-name="uni040B" unicode="&#x40b;" horiz-adv-x="736" 
d="M611 68h65v-68h-209v68h63v285h-224v-285h63v-68h-208v68h63v614h-127v-145h-72v213h479v-213h-73v145h-125v-262h187c65 0 118 -30 118 -120v-232z" />
    <glyph glyph-name="uni0452" unicode="&#x452;" horiz-adv-x="566" 
d="M60 433v67h70v182h-63v68h145v-250h223v-67h-223v-115h177c65 0 117 -30 117 -120v-247c0 -61 -51 -100 -117 -100h-65v69h101v331h-213v-183h64v-68h-210v68h64v365h-70z" />
    <glyph glyph-name="uni045B" unicode="&#x45b;" horiz-adv-x="639" 
d="M84 432v68h75v182h-64v68h146v-250h211v-68h-211v-114h173c65 0 115 -20 115 -110v-140h65v-68h-206v68h63v183h-210v-183h63v-68h-208v68h63v364h-75z" />
    <glyph glyph-name="uni0409" unicode="&#x409;" horiz-adv-x="927" 
d="M543 463l230 -145c65 -40 94 -85 94 -142v-58c0 -93 -24 -118 -95 -118h-371v69h59v613h-55l-206 -583c-16 -60 -51 -99 -116 -99h-58v68h87l218 614h-79v68h362v-68h-70v-219zM794 68v155l-251 158v-313h251z" />
    <glyph glyph-name="uni040A" unicode="&#x40a;" horiz-adv-x="919" 
d="M536 463l230 -145c65 -40 94 -85 94 -142v-58c0 -93 -24 -118 -95 -118h-373v68h61v286h-258v-286h61v-68h-206v68h63v614h-63v68h206v-68h-61v-261h258v261h-61v68h214v-68h-70v-219zM787 68v155l-251 158v-313h251z" />
    <glyph glyph-name="uni0459" unicode="&#x459;" horiz-adv-x="786" 
d="M176 500h345v-71h-67v-199l166 105c16 10 32 15 46 15c36 0 63 -28 63 -69v-193c0 -50 -8 -88 -88 -88h-331v67h65v363h-61l-128 -341c-21 -57 -47 -89 -105 -89h-56v67h78l140 363h-67v70zM650 68v205l-196 -123v-82h196z" />
    <glyph glyph-name="uni045A" unicode="&#x45a;" horiz-adv-x="798" 
d="M336 0v68h58v154h-208v-154h58v-68h-199v68h64v362h-64v70h199v-70h-58v-136h208v136h-58v70h204v-71h-67v-199l166 105c16 10 32 15 46 15c36 0 63 -28 63 -69v-193c0 -50 -8 -88 -88 -88h-324zM669 68v205l-196 -123v-82h196z" />
    <glyph glyph-name="currency" unicode="&#xa4;" horiz-adv-x="484" 
d="M27 125l49 49c-32 37 -47 83 -46 131c0 46 13 96 46 132c-14 13 -34 34 -49 49l37 37l48 -49c36 28 87 47 133 47c50 0 97 -19 134 -47l48 49l37 -36l-50 -50c31 -34 46 -82 46 -132c0 -46 -15 -96 -46 -131l50 -50l-37 -36l-48 50c-35 -31 -83 -48 -135 -48
c-48 0 -97 16 -132 47l-48 -49zM98 305c0 -84 65 -153 147 -153c85 0 148 71 148 153s-64 152 -148 152c-82 0 -147 -68 -147 -152z" />
    <glyph glyph-name="brokenbar" unicode="&#xa6;" horiz-adv-x="259" 
d="M100 750h69v-361h-69v361zM100 212h69v-362h-69v362z" />
    <glyph glyph-name="section" unicode="&#xa7;" horiz-adv-x="562" 
d="M502 333c0 -70 -4 -116 -69 -118c55 -3 56 -55 56 -107v-62c0 -116 -43 -116 -139 -116h-139c-124 0 -135 24 -135 113v66h73v-109h261v178h-216c-111 0 -134 13 -134 124v120c0 69 3 116 69 118c-51 1 -56 35 -56 75v89c0 116 43 116 139 116h139
c124 0 135 -24 135 -113v-66h-73v109h-261v-176h216c111 0 134 -13 134 -124v-117zM423 252v248h-282v-248h282z" />
    <glyph glyph-name="copyright" unicode="&#xa9;" horiz-adv-x="886" 
d="M826 373c0 -214 -173 -384 -385 -384c-213 0 -386 171 -386 384c0 212 173 386 387 386c211 0 384 -174 384 -386zM758 372c0 174 -142 319 -317 319c-177 0 -320 -143 -320 -318s143 -318 320 -318c175 0 317 142 317 317zM582 253v-119h-236c-67 0 -82 38 -82 83v306
c0 53 30 84 90 84h228v-120h-65v55h-177v-344h177v55h65z" />
    <glyph glyph-name="registered" unicode="&#xae;" horiz-adv-x="899" 
d="M826 373c0 -214 -173 -384 -385 -384c-213 0 -386 171 -386 384c0 212 173 386 387 386c211 0 384 -174 384 -386zM758 372c0 174 -142 319 -317 319c-177 0 -320 -143 -320 -318s143 -318 320 -318c175 0 317 142 317 317zM314 535h-56v64h278c45 0 85 -20 85 -70v-53
c0 -51 -30 -70 -61 -89l-43 -27l40 -151h70v-60h-50c-52 0 -77 26 -92 80l-25 93l-75 -46v-67h50v-60h-177v60h56v326zM385 535v-193l169 108v85h-169z" />
    <glyph glyph-name="degree" unicode="&#xb0;" horiz-adv-x="376" 
d="M37 648c0 85 68 153 155 153c83 0 152 -69 152 -154s-69 -153 -153 -153c-86 0 -154 70 -154 154zM90 649c0 -54 45 -101 101 -101c55 0 100 46 100 100c0 56 -46 101 -99 101c-57 0 -102 -45 -102 -100z" />
    <glyph glyph-name="paragraph" unicode="&#xb6;" 
d="M221 -101l1 535c-119 0 -196 64 -196 157c0 118 85 160 207 160h241v-852h-68v801h-116v-801h-69z" />
    <glyph glyph-name="periodcentered" unicode="&#xb7;" horiz-adv-x="221" 
d="M161 264c0 -29 -22 -51 -51 -51c-26 0 -50 22 -50 51c0 27 24 52 51 52c28 0 50 -25 50 -52z" />
    <glyph glyph-name="uni2116" unicode="&#x2116;" horiz-adv-x="1021" 
d="M654 750v-68h-63v-682h-98l-283 584v-516h65v-68h-210v68h63v614h-63v68h154l290 -596v528h-65v68h210zM828 501c108 0 125 -26 125 -128v-87c0 -96 -12 -123 -115 -123h-38c-94 0 -121 18 -121 115v111c0 88 30 112 115 112h34zM882 229v210h-130v-210h130zM678 47v67
h273v-67h-273z" />
    <glyph glyph-name="uni041C" unicode="&#x41c;" horiz-adv-x="860" 
d="M128 682h-63v68h154l212 -437l210 437h154v-68h-63v-614h63v-68h-210v68h65v515l-189 -389h-63l-188 392v-518h65v-68h-210v68h63v614z" />
    <glyph glyph-name="trademark" unicode="&#x2122;" horiz-adv-x="758" 
d="M72 420v54h51v220h-47v-61h-56v117h268v-117h-54v61h-49v-220h51v-54h-164zM738 474v-54h-146v54h44v202l-87 -176h-40l-86 174v-200h45v-54h-146v54h43v222h-43v54h125l83 -164l83 164h125v-54h-42v-222h42z" />
    <glyph glyph-name="uni0490" unicode="&#x490;" horiz-adv-x="518" 
d="M205 682v-614h65v-68h-210v68h63v614h-63v68h364v120h69v-188h-288z" />
    <glyph glyph-name="uni0491" unicode="&#x491;" horiz-adv-x="442" 
d="M50 0v67h65v362h-65v71h297v93h70v-164h-226v-362h77v-67h-218z" />
    <glyph glyph-name="uni0454" unicode="&#x454;" horiz-adv-x="435" 
d="M127 225v-157h191v78h67v-146h-250c-77 0 -85 41 -85 88v323c0 56 19 89 94 89h241v-146h-67v77h-191v-140h138v-66h-138z" />
    <glyph glyph-name="uni0404" unicode="&#x404;" horiz-adv-x="499" 
d="M143 750h316v-185h-72v117h-265v-260h227v-67h-227v-287h265v117h72v-185h-316c-72 0 -103 47 -103 98v554c0 62 29 98 103 98z" />
    <glyph glyph-name="AE" unicode="&#xc6;" horiz-adv-x="856" 
d="M532 69l179 -1v117h68v-185h-392v70h63v283h-172l-100 -285h60v-68h-194v68h58l218 614h-79v68h538v-185h-68v117h-179v-262h168v-67h-168v-284zM395 682l-93 -262h148v262h-55z" />
    <glyph glyph-name="ae" unicode="&#xe6;" horiz-adv-x="710" 
d="M142 432v-58h-64v126h489c65 0 93 -21 93 -88v-93l-264 -164v-87h185v58h79v-53c0 -40 -23 -73 -80 -73h-445c-69 0 -85 23 -85 88v35c0 48 7 61 68 98l200 118v93h-176zM396 432v-196l184 113v83h-184zM318 68v191l-188 -111v-80h188z" />
    <glyph glyph-name="OE" unicode="&#x152;" horiz-adv-x="819" 
d="M171 750h588v-185h-68v117h-233v-266l172 109v-81l-172 -107v-269h233v117h68v-185h-580c-92 0 -119 48 -119 121v496c0 83 20 133 111 133zM140 682v-614h236v217l-63 -40v81l63 40v316h-236z" />
    <glyph glyph-name="oe" unicode="&#x153;" horiz-adv-x="744" 
d="M604 0h-451c-68 0 -93 34 -93 89v322c0 53 18 89 93 89h438c65 0 93 -21 93 -88v-93l-274 -180v-71h195v58h79v-53c0 -40 -23 -73 -80 -73zM141 432v-364h189v364h-189zM410 432l1 -212l193 129v83h-194z" />
    <glyph glyph-name="florin" unicode="&#x192;" horiz-adv-x="354" 
d="M208 428l1 -542c0 -56 -22 -86 -89 -86h-94v69h104v559h-105v72h105v146c0 75 29 104 89 104h110v-68h-121v-182h121v-72h-121z" />
    <glyph glyph-name="yen" unicode="&#xa5;" horiz-adv-x="556" 
d="M480 217h-162v-149h65v-68h-210v68h63v149h-160v64h161v89h-161v65h125l-131 247h-45v68h162v-68h-36l127 -244l130 244h-36v68h159v-68h-38l-138 -247h125v-66h-162v-88h162v-64z" />
    <glyph glyph-name="germandbls" unicode="&#xdf;" horiz-adv-x="549" 
d="M208 682v-682h-158v68h80v578c0 75 29 104 89 104h137c82 0 113 -53 113 -119v-129c0 -51 -28 -90 -58 -93c32 -4 78 -40 78 -105v-170c0 -87 -42 -134 -141 -134h-72v68h131v300h-131v75h116v239h-184z" />
    <glyph glyph-name="cent" unicode="&#xa2;" horiz-adv-x="452" 
d="M269 -117h-59v117h-73c-71 0 -87 40 -87 88v324c0 56 31 89 95 89h65v85h59v-85h134v-127h-68v58h-66v-364h66v58h68v-126h-134v-117zM130 432v-364h80v364h-80z" />
    <glyph glyph-name="sterling" unicode="&#xa3;" horiz-adv-x="531" 
d="M318 428h-120v-360h213v117h68v-185h-446v68h87v360h-87v72h87v146c0 75 29 104 89 104h122v-68h-133v-182h120v-72z" />
    <glyph glyph-name="circumflex" unicode="&#x2c6;" horiz-adv-x="292" 
d="M182 682l107 -123h-73l-69 80l-70 -80h-74l112 123h67z" />
    <glyph glyph-name="caron" unicode="&#x2c7;" horiz-adv-x="292" 
d="M289 682l-107 -123h-67l-112 123h74l70 -80l69 80h73z" />
    <glyph glyph-name="tilde" unicode="&#x2dc;" horiz-adv-x="335" 
d="M295 666l38 -28c-9 -25 -52 -77 -100 -77c-49 0 -93 54 -136 54c-22 0 -34 -11 -53 -49l-41 30c9 24 50 76 93 76c52 0 111 -55 137 -55c25 0 51 24 62 49z" />
    <glyph glyph-name="cedilla" unicode="&#xb8;" horiz-adv-x="170" 
d="M0 -97v99h59v-44h37c50 0 74 -27 74 -70v-37c0 -37 -12 -68 -68 -68h-102v53h108v67h-108z" />
    <glyph glyph-name="ogonek" unicode="&#x2db;" horiz-adv-x="170" 
d="M98 0h72l-108 -89v-75h88v-53h-82c-56 0 -68 31 -68 68v31c0 43 14 54 54 84z" />
    <glyph glyph-name="ring" unicode="&#x2da;" horiz-adv-x="178" 
d="M0 623c0 49 40 89 90 89c48 0 88 -40 88 -89s-40 -89 -89 -89s-89 41 -89 89zM49 624c0 -22 18 -41 40 -41c23 0 41 19 41 40c0 23 -19 41 -40 41c-23 0 -41 -18 -41 -40z" />
    <glyph glyph-name="grave" unicode="`" horiz-adv-x="182" 
d="M72 682l107 -123h-73l-105 123h71z" />
    <glyph glyph-name="acute" unicode="&#xb4;" horiz-adv-x="182" 
d="M1 559l107 123h71l-105 -123h-73z" />
    <glyph glyph-name="breve" unicode="&#x2d8;" horiz-adv-x="335" 
d="M275 697h53c0 -85 -69 -153 -153 -153c-86 0 -154 70 -154 153h53c1 -53 45 -99 101 -99c55 0 100 46 100 99z" />
    <glyph glyph-name="hungarumlaut" unicode="&#x2dd;" horiz-adv-x="330" 
d="M1 559l107 123h71l-105 -123h-73zM150 559l107 123h71l-105 -123h-73z" />
    <glyph glyph-name="dieresis" unicode="&#xa8;" horiz-adv-x="235" 
d="M87 602c0 -25 -19 -44 -44 -44c-22 0 -42 19 -42 44c0 23 20 44 43 44c24 0 43 -21 43 -44zM235 602c0 -25 -19 -44 -44 -44c-22 0 -42 19 -42 44c0 23 20 44 43 44c24 0 43 -21 43 -44z" />
    <glyph glyph-name="dotaccent" unicode="&#x2d9;" horiz-adv-x="85" 
d="M86 624c0 -25 -19 -44 -44 -44c-22 0 -42 19 -42 44c0 23 20 44 43 44c24 0 43 -21 43 -44z" />
    <glyph glyph-name="macron" unicode="&#xaf;" horiz-adv-x="255" 
d="M0 575v63h255v-63h-255z" />
    <glyph glyph-name="lessequal" unicode="&#x2264;" horiz-adv-x="541" 
d="M511 200l-451 218v76l451 217v-69l-378 -186l378 -187v-69zM60 73v66h450v-66h-450z" />
    <glyph glyph-name="greaterequal" unicode="&#x2265;" horiz-adv-x="541" 
d="M511 418l-451 -218v69l378 187l-378 186v69l451 -217v-76zM511 139v-66h-450v66h450z" />
    <glyph glyph-name="divide" unicode="&#xf7;" horiz-adv-x="362" 
d="M15 354v66h329v-66h-329zM229 256c0 -29 -22 -51 -51 -51c-26 0 -50 22 -50 51c0 27 24 52 51 52c28 0 50 -25 50 -52zM229 522c0 -30 -22 -52 -51 -52c-26 0 -50 22 -50 52c0 28 24 52 51 52c28 0 50 -24 50 -52z" />
    <glyph glyph-name="multiply" unicode="&#xd7;" horiz-adv-x="373" 
d="M234 386l132 -132l-46 -46l-133 132l-133 -133l-49 49l133 133l-132 132l46 47l133 -132l133 134l50 -50z" />
    <glyph glyph-name="Oslash" unicode="&#xd8;" 
d="M108 -76l23 81c-54 15 -71 58 -71 116v496c0 83 20 133 111 133h172l19 67h67l-21 -73c51 -14 74 -57 74 -127v-481c0 -95 -27 -136 -111 -136h-174l-21 -76h-68zM402 682h-11l-174 -614h185v614zM140 682v-614h9l174 614h-183z" />
    <glyph glyph-name="oslash" unicode="&#xf8;" horiz-adv-x="451" 
d="M94 -85l25 85c-58 5 -79 38 -79 89v322c0 53 18 89 93 89h136l19 63h71l-19 -64c55 -7 71 -41 71 -88v-322c0 -55 -25 -89 -93 -89h-128l-25 -85h-71zM121 432v-364h18l109 364h-127zM330 432h-10l-109 -364h119v364z" />
    <glyph glyph-name="ordfeminine" unicode="&#xaa;" horiz-adv-x="338" 
d="M273 476h55v-56h-245c-49 0 -61 17 -61 63v23c0 32 12 45 47 67l139 86v35h-119v-47h-53v103h172c47 0 65 -21 65 -61v-213zM208 476v118l-122 -75v-43h122z" />
    <glyph glyph-name="onesuperior" unicode="&#xb9;" horiz-adv-x="170" 
d="M16 420v46h46v237h-58v47h66c32 0 45 -15 45 -41v-243h43v-46h-142z" />
    <glyph glyph-name="ordmasculine" unicode="&#xba;" horiz-adv-x="308" 
d="M173 750c108 0 115 -26 115 -128v-79c0 -96 -2 -123 -105 -123h-50c-94 0 -110 18 -110 115v103c0 88 19 112 104 112h46zM238 465v240h-165v-240h165z" />
    <glyph glyph-name="twosuperior" unicode="&#xb2;" horiz-adv-x="291" 
d="M44 420v80c0 25 9 44 28 56l133 73v78h-110v-52h-50v95h144c51 0 69 -13 69 -56v-51c0 -17 -7 -36 -27 -47c-47 -27 -90 -53 -137 -79v-55h111v39h53v-81h-214z" />
    <glyph glyph-name="threesuperior" unicode="&#xb3;" horiz-adv-x="296" 
d="M258 750v-39l-107 -94h44c47 0 62 -16 62 -57v-76c0 -43 -8 -64 -73 -64h-74c-62 0 -66 29 -66 65v30h49v-56h111v116h-125v38l109 94h-95v-30h-49v73h214z" />
    <glyph glyph-name="exclamdown" unicode="&#xa1;" horiz-adv-x="301" 
d="M109 530h82v-534h-82v534zM201 676c0 -27 -22 -52 -50 -52c-27 0 -51 25 -51 52c0 29 24 51 50 51c29 0 51 -22 51 -51z" />
    <glyph glyph-name="questiondown" unicode="&#xbf;" horiz-adv-x="481" 
d="M328 64v114h73v-182h-269c-73 0 -112 23 -112 107v193c0 62 29 102 94 102h129v154h80v-135c0 -62 -30 -88 -95 -88h-122v-265h222zM283 647c-28 0 -51 25 -51 52c0 29 23 51 52 51c27 0 50 -22 50 -51c0 -27 -23 -52 -51 -52z" />
    <glyph glyph-name="Scaron" unicode="&#x160;" 
d="M140 522l248 -155c54 -38 94 -51 94 -106v-170c0 -64 -50 -91 -103 -91h-319v185h72v-117h270v195l-262 161c-47 26 -80 51 -80 100v126c0 83 37 100 111 100h302v-185h-72v117h-261v-160zM414 932l-107 -123h-67l-112 123h74l70 -80l69 80h73z" />
    <glyph glyph-name="Zcaron" unicode="&#x17d;" horiz-adv-x="521" 
d="M491 678l-375 -610h295v114h70v-182h-451v72l377 610h-279v-112h-71v180h434v-72zM403 932l-107 -123h-67l-112 123h74l70 -80l69 80h73z" />
    <glyph glyph-name="scaron" unicode="&#x161;" horiz-adv-x="439" 
d="M129 348l170 -106c55 -34 90 -48 90 -92v-62c0 -48 -18 -88 -86 -88h-242v151h68v-83h180v83l-164 103c-67 43 -95 47 -95 100v57c0 49 18 89 94 89h233v-150h-68v82h-180v-84zM362 682l-107 -123h-67l-112 123h74l70 -80l69 80h73z" />
    <glyph glyph-name="zcaron" unicode="&#x17e;" horiz-adv-x="452" 
d="M412 0h-372v69l277 363h-203v-71h-69v139h359v-71l-275 -361h213v69h70v-137zM369 682l-107 -123h-67l-112 123h74l70 -80l69 80h73z" />
    <glyph glyph-name="Ydieresis" unicode="&#x178;" horiz-adv-x="556" 
d="M372 750h159v-68h-38l-175 -313v-301h65v-68h-210v68h63v301l-166 313h-45v68h162v-68h-36l127 -244l130 244h-36v68zM247 852c0 -25 -19 -44 -44 -44c-22 0 -42 19 -42 44c0 23 20 44 43 44c24 0 43 -21 43 -44zM395 852c0 -25 -19 -44 -44 -44c-22 0 -42 19 -42 44
c0 23 20 44 43 44c24 0 43 -21 43 -44z" />
    <glyph glyph-name="Agrave" unicode="&#xc0;" horiz-adv-x="641" 
d="M231 330h178l-89 352zM551 68h65v-68h-195v68h54l-50 199h-210l-50 -199h55v-68h-195v68h63l174 682h118zM302 932l107 -123h-73l-105 123h71z" />
    <glyph glyph-name="Aacute" unicode="&#xc1;" horiz-adv-x="641" 
d="M231 330h178l-89 352zM551 68h65v-68h-195v68h54l-50 199h-210l-50 -199h55v-68h-195v68h63l174 682h118zM231 809l107 123h71l-105 -123h-73z" />
    <glyph glyph-name="Acircumflex" unicode="&#xc2;" horiz-adv-x="641" 
d="M231 330h178l-89 352zM551 68h65v-68h-195v68h54l-50 199h-210l-50 -199h55v-68h-195v68h63l174 682h118zM356 932l107 -123h-73l-69 80l-70 -80h-74l112 123h67z" />
    <glyph glyph-name="Atilde" unicode="&#xc3;" horiz-adv-x="641" 
d="M231 330h178l-89 352zM551 68h65v-68h-195v68h54l-50 199h-210l-50 -199h55v-68h-195v68h63l174 682h118zM447 916l38 -28c-9 -25 -52 -77 -100 -77c-49 0 -93 54 -136 54c-22 0 -34 -11 -53 -49l-41 30c9 24 50 76 93 76c52 0 111 -55 137 -55c25 0 51 24 62 49z" />
    <glyph glyph-name="Adieresis" unicode="&#xc4;" horiz-adv-x="641" 
d="M231 330h178l-89 352zM551 68h65v-68h-195v68h54l-50 199h-210l-50 -199h55v-68h-195v68h63l174 682h118zM289 852c0 -25 -19 -44 -44 -44c-22 0 -42 19 -42 44c0 23 20 44 43 44c24 0 43 -21 43 -44zM437 852c0 -25 -19 -44 -44 -44c-22 0 -42 19 -42 44
c0 23 20 44 43 44c24 0 43 -21 43 -44z" />
    <glyph glyph-name="Aring" unicode="&#xc5;" horiz-adv-x="641" 
d="M231 330h178l-89 352zM551 68h65v-68h-195v68h54l-50 199h-210l-50 -199h55v-68h-195v68h63l174 682h118zM231 873c0 49 40 89 90 89c48 0 88 -40 88 -89s-40 -89 -89 -89s-89 41 -89 89zM280 874c0 -22 18 -41 40 -41c23 0 41 19 41 40c0 23 -19 41 -40 41
c-23 0 -41 -18 -41 -40z" />
    <glyph glyph-name="agrave" unicode="&#xe0;" horiz-adv-x="493" 
d="M390 68h63v-68h-348c-69 0 -85 23 -85 88v37c0 48 7 59 68 96l220 137v74h-196v-58h-64v126h250c67 0 92 -30 92 -86v-346zM308 68v210l-208 -130v-80h208zM228 682l107 -123h-73l-105 123h71z" />
    <glyph glyph-name="aacute" unicode="&#xe1;" horiz-adv-x="493" 
d="M390 68h63v-68h-348c-69 0 -85 23 -85 88v37c0 48 7 59 68 96l220 137v74h-196v-58h-64v126h250c67 0 92 -30 92 -86v-346zM308 68v210l-208 -130v-80h208zM157 559l107 123h71l-105 -123h-73z" />
    <glyph glyph-name="acircumflex" unicode="&#xe2;" horiz-adv-x="493" 
d="M390 68h63v-68h-348c-69 0 -85 23 -85 88v37c0 48 7 59 68 96l220 137v74h-196v-58h-64v126h250c67 0 92 -30 92 -86v-346zM308 68v210l-208 -130v-80h208zM243 682l107 -123h-73l-69 80l-70 -80h-74l112 123h67z" />
    <glyph glyph-name="atilde" unicode="&#xe3;" horiz-adv-x="493" 
d="M390 68h63v-68h-348c-69 0 -85 23 -85 88v37c0 48 7 59 68 96l220 137v74h-196v-58h-64v126h250c67 0 92 -30 92 -86v-346zM308 68v210l-208 -130v-80h208zM337 666l38 -28c-9 -25 -52 -77 -100 -77c-49 0 -93 54 -136 54c-22 0 -34 -11 -53 -49l-41 30c9 24 50 76 93 76
c52 0 111 -55 137 -55c25 0 51 24 62 49z" />
    <glyph glyph-name="adieresis" unicode="&#xe4;" horiz-adv-x="493" 
d="M390 68h63v-68h-348c-69 0 -85 23 -85 88v37c0 48 7 59 68 96l220 137v74h-196v-58h-64v126h250c67 0 92 -30 92 -86v-346zM308 68v210l-208 -130v-80h208zM172 602c0 -25 -19 -44 -44 -44c-22 0 -42 19 -42 44c0 23 20 44 43 44c24 0 43 -21 43 -44zM320 602
c0 -25 -19 -44 -44 -44c-22 0 -42 19 -42 44c0 23 20 44 43 44c24 0 43 -21 43 -44z" />
    <glyph glyph-name="aring" unicode="&#xe5;" horiz-adv-x="493" 
d="M390 68h63v-68h-348c-69 0 -85 23 -85 88v37c0 48 7 59 68 96l220 137v74h-196v-58h-64v126h250c67 0 92 -30 92 -86v-346zM308 68v210l-208 -130v-80h208zM117 623c0 49 40 89 90 89c48 0 88 -40 88 -89s-40 -89 -89 -89s-89 41 -89 89zM166 624c0 -22 18 -41 40 -41
c23 0 41 19 41 40c0 23 -19 41 -40 41c-23 0 -41 -18 -41 -40z" />
    <glyph glyph-name="Scedilla" unicode="&#x15e;" 
d="M186 -97v97h-126v185h72v-117h270v195l-262 161c-47 26 -80 51 -80 100v126c0 83 37 100 111 100h302v-185h-72v117h-261v-160l248 -155c54 -38 94 -51 94 -106v-170c0 -64 -50 -91 -103 -91h-134v-42h37c50 0 74 -27 74 -70v-37c0 -37 -12 -68 -68 -68h-102v53h108v67
h-108z" />
    <glyph glyph-name="Sacute" unicode="&#x15a;" 
d="M140 522l248 -155c54 -38 94 -51 94 -106v-170c0 -64 -50 -91 -103 -91h-319v185h72v-117h270v195l-262 161c-47 26 -80 51 -80 100v126c0 83 37 100 111 100h302v-185h-72v117h-261v-160zM182 809l107 123h71l-105 -123h-73z" />
    <glyph glyph-name="Tcaron" unicode="&#x164;" horiz-adv-x="529" 
d="M160 0v68h63v614h-126v-118h-72v186h479v-186h-73v118h-126v-614h65v-68h-210zM407 932l-107 -123h-67l-112 123h74l70 -80l69 80h73z" />
    <glyph glyph-name="Zacute" unicode="&#x179;" horiz-adv-x="521" 
d="M491 678l-375 -610h295v114h70v-182h-451v72l377 610h-279v-112h-71v180h434v-72zM171 809l107 123h71l-105 -123h-73z" />
    <glyph glyph-name="sacute" unicode="&#x15b;" horiz-adv-x="439" 
d="M129 348l170 -106c55 -34 90 -48 90 -92v-62c0 -48 -18 -88 -86 -88h-242v151h68v-83h180v83l-164 103c-67 43 -95 47 -95 100v57c0 49 18 89 94 89h233v-150h-68v82h-180v-84zM130 559l107 123h71l-105 -123h-73z" />
    <glyph glyph-name="tcaron" unicode="&#x165;" horiz-adv-x="382" 
d="M114 682h78v-182h81v-72h-81v-360h95v-68h-84c-60 0 -89 29 -89 104v324h-74v72h74v182zM379 750l-76 -211h-72l74 211h74z" />
    <glyph glyph-name="zacute" unicode="&#x17a;" horiz-adv-x="452" 
d="M412 0h-372v69l277 363h-203v-71h-69v139h359v-71l-275 -361h213v69h70v-137zM137 559l107 123h71l-105 -123h-73z" />
    <glyph glyph-name="zdotaccent" unicode="&#x17c;" horiz-adv-x="452" 
d="M412 0h-372v69l277 363h-203v-71h-69v139h359v-71l-275 -361h213v69h70v-137zM269 624c0 -25 -19 -44 -44 -44c-22 0 -42 19 -42 44c0 23 20 44 43 44c24 0 43 -21 43 -44z" />
    <glyph glyph-name="lcaron" unicode="&#x13e;" horiz-adv-x="364" 
d="M195 750v-682h65v-68h-210v68h63v614h-63v68h145zM363 750l-76 -240h-73l75 240h74z" />
    <glyph glyph-name="Lcaron" unicode="&#x13d;" horiz-adv-x="528" 
d="M313 914l-107 -123h-67l-112 123h74l70 -80l69 80h73zM65 0v68h63v614h-63v68h210v-68h-65v-614h210v117h68v-185h-423z" />
    <glyph glyph-name="scedilla" unicode="&#x15f;" horiz-adv-x="439" 
d="M134 -97v97h-73v151h68v-83h180v83l-164 103c-67 43 -95 47 -95 100v57c0 49 18 89 94 89h233v-150h-68v82h-180v-84l170 -106c55 -34 90 -48 90 -92v-62c0 -48 -18 -88 -86 -88h-110v-42h37c50 0 74 -27 74 -70v-37c0 -37 -12 -68 -68 -68h-102v53h108v67h-108z" />
    <glyph glyph-name="aogonek" unicode="&#x105;" horiz-adv-x="493" 
d="M390 68h63v-68h-348c-69 0 -85 23 -85 88v37c0 48 7 59 68 96l220 137v74h-196v-58h-64v126h250c67 0 92 -30 92 -86v-346zM308 68v210l-208 -130v-80h208zM453 0h-72l-44 -34c-40 -30 -54 -41 -54 -84v-31c0 -37 12 -68 68 -68h82v53h-88v75z" />
    <glyph glyph-name="Zdotaccent" unicode="&#x17b;" horiz-adv-x="521" 
d="M491 678l-375 -610h295v114h70v-182h-451v72l377 610h-279v-112h-71v180h434v-72zM303 874c0 -25 -19 -44 -44 -44c-22 0 -42 19 -42 44c0 23 20 44 43 44c24 0 43 -21 43 -44z" />
    <glyph glyph-name="Aogonek" unicode="&#x104;" horiz-adv-x="641" 
d="M231 330h178l-89 352zM551 68h65v-68h-195v68h54l-50 199h-210l-50 -199h55v-68h-195v68h63l174 682h118zM616 0h-72l-44 -34c-40 -30 -54 -41 -54 -84v-31c0 -37 12 -68 68 -68h82v53h-88v75z" />
    <glyph glyph-name="Lslash" unicode="&#x141;" horiz-adv-x="528" 
d="M65 0v68h63v185l-83 -35v86l83 35v343h-63v68h210v-68h-65v-307l191 82v-86l-191 -82v-221h210v117h68v-185h-423z" />
    <glyph glyph-name="lslash" unicode="&#x142;" horiz-adv-x="310" 
d="M195 750v-356l101 44v-86l-101 -44v-240h65v-68h-210v68h63v205l-102 -44v86l102 44v323h-63v68h145z" />
    <glyph glyph-name="racute" unicode="&#x155;" horiz-adv-x="461" 
d="M421 334h-81v97l-156 -99v-264h49v-68h-193v68h63v365h-63v68h144v-88l123 77c11 7 23 10 36 10c40 0 78 -16 78 -77v-89zM141 559l107 123h71l-105 -123h-73z" />
    <glyph glyph-name="Abreve" unicode="&#x102;" horiz-adv-x="641" 
d="M551 68h65v-68h-195v68h54l-50 199h-210l-50 -199h55v-68h-195v68h63l174 682h118zM231 330h178l-89 352zM421 947h53c0 -85 -69 -153 -153 -153c-86 0 -154 70 -154 153h53c1 -53 45 -99 101 -99c55 0 100 46 100 99z" />
    <glyph glyph-name="abreve" unicode="&#x103;" horiz-adv-x="493" 
d="M390 68h63v-68h-348c-69 0 -85 23 -85 88v37c0 48 7 59 68 96l220 137v74h-196v-58h-64v126h250c67 0 92 -30 92 -86v-346zM308 68v210l-208 -130v-80h208zM313 697h53c0 -85 -69 -153 -153 -153c-86 0 -154 70 -154 153h53c1 -53 45 -99 101 -99c55 0 100 46 100 99z
" />
    <glyph glyph-name="Lacute" unicode="&#x139;" horiz-adv-x="528" 
d="M65 0v68h63v614h-63v68h210v-68h-65v-614h210v117h68v-185h-423zM175 809l107 123h71l-105 -123h-73z" />
    <glyph glyph-name="lacute" unicode="&#x13a;" horiz-adv-x="277" 
d="M195 750v-682h65v-68h-210v68h63v614h-63v68h145zM47 794l107 123h71l-105 -123h-73z" />
    <glyph glyph-name="Cacute" unicode="&#x106;" horiz-adv-x="525" 
d="M407 68v117h68v-185h-307c-81 0 -108 48 -108 107v535c0 52 23 108 98 108h317v-185h-68v117h-265v-614h265zM173 809l107 123h71l-105 -123h-73z" />
    <glyph glyph-name="cacute" unicode="&#x107;" horiz-adv-x="426" 
d="M386 126v-126h-249c-71 0 -87 40 -87 88v324c0 56 31 89 95 89h241v-127h-68v58h-188v-364h188v58h68zM124 559l107 123h71l-105 -123h-73z" />
    <glyph glyph-name="Ccedilla" unicode="&#xc7;" horiz-adv-x="525" 
d="M177 -97v97h-9c-81 0 -108 48 -108 107v535c0 52 23 108 98 108h317v-185h-68v117h-265v-614h265v117h68v-185h-239v-42h37c50 0 74 -27 74 -70v-37c0 -37 -12 -68 -68 -68h-102v53h108v67h-108z" />
    <glyph glyph-name="ccedilla" unicode="&#xe7;" horiz-adv-x="426" 
d="M128 -97v97c-63 3 -78 42 -78 88v324c0 56 31 89 95 89h241v-127h-68v58h-188v-364h188v58h68v-126h-199v-42h37c50 0 74 -27 74 -70v-37c0 -37 -12 -68 -68 -68h-102v53h108v67h-108z" />
    <glyph glyph-name="Ccaron" unicode="&#x10c;" horiz-adv-x="525" 
d="M407 68v117h68v-185h-307c-81 0 -108 48 -108 107v535c0 52 23 108 98 108h317v-185h-68v117h-265v-614h265zM405 932l-107 -123h-67l-112 123h74l70 -80l69 80h73z" />
    <glyph glyph-name="ccaron" unicode="&#x10d;" horiz-adv-x="426" 
d="M386 126v-126h-249c-71 0 -87 40 -87 88v324c0 56 31 89 95 89h241v-127h-68v58h-188v-364h188v58h68zM356 682l-107 -123h-67l-112 123h74l70 -80l69 80h73z" />
    <glyph glyph-name="eacute" unicode="&#xe9;" horiz-adv-x="465" 
d="M130 139v-71h206v58h79v-53c0 -40 -23 -73 -80 -73h-205c-57 0 -80 33 -80 73v329c0 65 31 99 103 99h169c65 0 93 -22 93 -89v-93zM130 432v-212l205 129v83h-205zM143 559l107 123h71l-105 -123h-73z" />
    <glyph glyph-name="edieresis" unicode="&#xeb;" horiz-adv-x="465" 
d="M130 139v-71h206v58h79v-53c0 -40 -23 -73 -80 -73h-205c-57 0 -80 33 -80 73v329c0 65 31 99 103 99h169c65 0 93 -22 93 -89v-93zM130 432v-212l205 129v83h-205zM201 602c0 -25 -19 -44 -44 -44c-22 0 -42 19 -42 44c0 23 20 44 43 44c24 0 43 -21 43 -44zM349 602
c0 -25 -19 -44 -44 -44c-22 0 -42 19 -42 44c0 23 20 44 43 44c24 0 43 -21 43 -44z" />
    <glyph glyph-name="ecaron" unicode="&#x11b;" horiz-adv-x="465" 
d="M130 139v-71h206v58h79v-53c0 -40 -23 -73 -80 -73h-205c-57 0 -80 33 -80 73v329c0 65 31 99 103 99h169c65 0 93 -22 93 -89v-93zM130 432v-212l205 129v83h-205zM375 682l-107 -123h-67l-112 123h74l70 -80l69 80h73z" />
    <glyph glyph-name="Iacute" unicode="&#xcd;" horiz-adv-x="370" 
d="M225 682v-614h65v-68h-210v68h63v614h-63v68h210v-68h-65zM96 809l107 123h71l-105 -123h-73z" />
    <glyph glyph-name="iacute" unicode="&#xed;" horiz-adv-x="300" 
d="M195 500v-432h65v-68h-210v68h63v364h-63v68h145zM61 559l107 123h71l-105 -123h-73z" />
    <glyph glyph-name="Icircumflex" unicode="&#xce;" horiz-adv-x="370" 
d="M225 682v-614h65v-68h-210v68h63v614h-63v68h210v-68h-65zM221 932l107 -123h-73l-69 80l-70 -80h-74l112 123h67z" />
    <glyph glyph-name="Dcaron" unicode="&#x10e;" horiz-adv-x="604" 
d="M60 750h353c99 0 131 -43 131 -131v-488c0 -92 -42 -131 -131 -131h-353v68h63v614h-63v68zM462 68v614h-257v-614h257zM445 932l-107 -123h-67l-112 123h74l70 -80l69 80h73z" />
    <glyph glyph-name="icircumflex" unicode="&#xee;" horiz-adv-x="308" 
d="M203 500v-432h65v-68h-210v68h63v364h-63v68h145zM178 682l107 -123h-73l-69 80l-70 -80h-74l112 123h67z" />
    <glyph glyph-name="dcaron" unicode="&#x10f;" horiz-adv-x="611" 
d="M424 69h63v-69h-145v115l-173 -109c-21 -11 -39 -16 -55 -16c-41 0 -64 31 -64 66v350c0 55 15 94 90 94h202v182h-66v68h148v-681zM342 195v237h-212v-369zM604 750l-76 -240h-73l75 240h74z" />
    <glyph glyph-name="Dcroat" unicode="&#x110;" horiz-adv-x="604" 
d="M53 354v66h70v262h-63v68h353c99 0 131 -43 131 -131v-488c0 -92 -42 -131 -131 -131h-353v68h63v286h-70zM462 68v614h-257v-262h123v-66h-123v-286h257z" />
    <glyph glyph-name="dcroat" unicode="&#x111;" horiz-adv-x="527" 
d="M260 632h82v50h-66v68h148v-118h63v-63h-63v-500h63v-69h-145v115l-173 -109c-21 -11 -39 -16 -55 -16c-41 0 -64 31 -64 66v350c0 55 15 94 90 94h202v69h-82v63zM342 195v237h-212v-369z" />
    <glyph glyph-name="Nacute" unicode="&#x143;" horiz-adv-x="719" 
d="M654 750v-68h-63v-682h-98l-283 584v-516h65v-68h-210v68h63v614h-63v68h154l290 -596v528h-65v68h210zM270 809l107 123h71l-105 -123h-73z" />
    <glyph glyph-name="nacute" unicode="&#x144;" horiz-adv-x="568" 
d="M464 68h64v-68h-193v68h48v372l-199 -125v-247h49v-68h-193v68h63v365h-63v67h144v-104l166 104c11 7 23 10 36 10c40 0 78 -16 78 -77v-365zM195 559l107 123h71l-105 -123h-73z" />
    <glyph glyph-name="Ncaron" unicode="&#x147;" horiz-adv-x="719" 
d="M654 750v-68h-63v-682h-98l-283 584v-516h65v-68h-210v68h63v614h-63v68h154l290 -596v528h-65v68h210zM502 932l-107 -123h-67l-112 123h74l70 -80l69 80h73z" />
    <glyph glyph-name="ncaron" unicode="&#x148;" horiz-adv-x="568" 
d="M464 68h64v-68h-193v68h48v372l-199 -125v-247h49v-68h-193v68h63v365h-63v67h144v-104l166 104c11 7 23 10 36 10c40 0 78 -16 78 -77v-365zM427 682l-107 -123h-67l-112 123h74l70 -80l69 80h73z" />
    <glyph glyph-name="Oacute" unicode="&#xd3;" 
d="M171 750h195c81 0 116 -45 116 -133v-481c0 -95 -27 -136 -111 -136h-192c-92 0 -119 48 -119 121v496c0 83 20 133 111 133zM140 682v-614h262v614h-262zM182 809l107 123h71l-105 -123h-73z" />
    <glyph glyph-name="oacute" unicode="&#xf3;" horiz-adv-x="451" 
d="M318 0h-185c-68 0 -93 34 -93 89v322c0 53 18 89 93 89h185c73 0 93 -36 93 -89v-322c0 -55 -25 -89 -93 -89zM121 432v-364h209v364h-209zM136 559l107 123h71l-105 -123h-73z" />
    <glyph glyph-name="Ocircumflex" unicode="&#xd4;" 
d="M171 750h195c81 0 116 -45 116 -133v-481c0 -95 -27 -136 -111 -136h-192c-92 0 -119 48 -119 121v496c0 83 20 133 111 133zM140 682v-614h262v614h-262zM307 932l107 -123h-73l-69 80l-70 -80h-74l112 123h67z" />
    <glyph glyph-name="ocircumflex" unicode="&#xf4;" horiz-adv-x="451" 
d="M318 0h-185c-68 0 -93 34 -93 89v322c0 53 18 89 93 89h185c73 0 93 -36 93 -89v-322c0 -55 -25 -89 -93 -89zM121 432v-364h209v364h-209zM261 682l107 -123h-73l-69 80l-70 -80h-74l112 123h67z" />
    <glyph glyph-name="Ohungarumlaut" unicode="&#x150;" 
d="M171 750h195c81 0 116 -45 116 -133v-481c0 -95 -27 -136 -111 -136h-192c-92 0 -119 48 -119 121v496c0 83 20 133 111 133zM140 682v-614h262v614h-262zM107 809l107 123h71l-105 -123h-73zM256 809l107 123h71l-105 -123h-73z" />
    <glyph glyph-name="ohungarumlaut" unicode="&#x151;" horiz-adv-x="451" 
d="M318 0h-185c-68 0 -93 34 -93 89v322c0 53 18 89 93 89h185c73 0 93 -36 93 -89v-322c0 -55 -25 -89 -93 -89zM121 432v-364h209v364h-209zM62 559l107 123h71l-105 -123h-73zM211 559l107 123h71l-105 -123h-73z" />
    <glyph glyph-name="Odieresis" unicode="&#xd6;" 
d="M171 750h195c81 0 116 -45 116 -133v-481c0 -95 -27 -136 -111 -136h-192c-92 0 -119 48 -119 121v496c0 83 20 133 111 133zM140 682v-614h262v614h-262zM240 852c0 -25 -19 -44 -44 -44c-22 0 -42 19 -42 44c0 23 20 44 43 44c24 0 43 -21 43 -44zM388 852
c0 -25 -19 -44 -44 -44c-22 0 -42 19 -42 44c0 23 20 44 43 44c24 0 43 -21 43 -44z" />
    <glyph glyph-name="odieresis" unicode="&#xf6;" horiz-adv-x="451" 
d="M318 0h-185c-68 0 -93 34 -93 89v322c0 53 18 89 93 89h185c73 0 93 -36 93 -89v-322c0 -55 -25 -89 -93 -89zM121 432v-364h209v364h-209zM194 602c0 -25 -19 -44 -44 -44c-22 0 -42 19 -42 44c0 23 20 44 43 44c24 0 43 -21 43 -44zM342 602c0 -25 -19 -44 -44 -44
c-22 0 -42 19 -42 44c0 23 20 44 43 44c24 0 43 -21 43 -44z" />
    <glyph glyph-name="rcaron" unicode="&#x159;" horiz-adv-x="461" 
d="M421 334h-81v97l-156 -99v-264h49v-68h-193v68h63v365h-63v68h144v-88l123 77c11 7 23 10 36 10c40 0 78 -16 78 -77v-89zM373 682l-107 -123h-67l-112 123h74l70 -80l69 80h73z" />
    <glyph glyph-name="Uring" unicode="&#x16e;" horiz-adv-x="682" 
d="M60 682v68h210v-68h-65v-614h272v614h-65v68h210v-68h-63v-578c0 -72 -30 -104 -90 -104h-257c-61 0 -89 36 -89 99v583h-63zM252 873c0 49 40 89 90 89c48 0 88 -40 88 -89s-40 -89 -89 -89s-89 41 -89 89zM301 874c0 -22 18 -41 40 -41c23 0 41 19 41 40
c0 23 -19 41 -40 41c-23 0 -41 -18 -41 -40z" />
    <glyph glyph-name="uring" unicode="&#x16f;" horiz-adv-x="568" 
d="M104 433h-64v68h145v-433l199 125v240h-49v68h130v-433h63v-68h-144v112l-166 -104c-11 -7 -23 -10 -36 -10c-40 0 -78 16 -78 77v358zM195 623c0 49 40 89 90 89c48 0 88 -40 88 -89s-40 -89 -89 -89s-89 41 -89 89zM244 624c0 -22 18 -41 40 -41c23 0 41 19 41 40
c0 23 -19 41 -40 41c-23 0 -41 -18 -41 -40z" />
    <glyph glyph-name="Uacute" unicode="&#xda;" horiz-adv-x="682" 
d="M60 682v68h210v-68h-65v-614h272v614h-65v68h210v-68h-63v-578c0 -72 -30 -104 -90 -104h-257c-61 0 -89 36 -89 99v583h-63zM252 809l107 123h71l-105 -123h-73z" />
    <glyph glyph-name="uacute" unicode="&#xfa;" horiz-adv-x="568" 
d="M104 433h-64v68h145v-433l199 125v240h-49v68h130v-433h63v-68h-144v112l-166 -104c-11 -7 -23 -10 -36 -10c-40 0 -78 16 -78 77v358zM195 559l107 123h71l-105 -123h-73z" />
    <glyph glyph-name="Uhungarumlaut" unicode="&#x170;" horiz-adv-x="682" 
d="M60 682v68h210v-68h-65v-614h272v614h-65v68h210v-68h-63v-578c0 -72 -30 -104 -90 -104h-257c-61 0 -89 36 -89 99v583h-63zM177 809l107 123h71l-105 -123h-73zM326 809l107 123h71l-105 -123h-73z" />
    <glyph glyph-name="uhungarumlaut" unicode="&#x171;" horiz-adv-x="568" 
d="M104 433h-64v68h145v-433l199 125v240h-49v68h130v-433h63v-68h-144v112l-166 -104c-11 -7 -23 -10 -36 -10c-40 0 -78 16 -78 77v358zM120 559l107 123h71l-105 -123h-73zM269 559l107 123h71l-105 -123h-73z" />
    <glyph glyph-name="Udieresis" unicode="&#xdc;" horiz-adv-x="682" 
d="M60 682v68h210v-68h-65v-614h272v614h-65v68h210v-68h-63v-578c0 -72 -30 -104 -90 -104h-257c-61 0 -89 36 -89 99v583h-63zM310 852c0 -25 -19 -44 -44 -44c-22 0 -42 19 -42 44c0 23 20 44 43 44c24 0 43 -21 43 -44zM458 852c0 -25 -19 -44 -44 -44
c-22 0 -42 19 -42 44c0 23 20 44 43 44c24 0 43 -21 43 -44z" />
    <glyph glyph-name="udieresis" unicode="&#xfc;" horiz-adv-x="568" 
d="M104 433h-64v68h145v-433l199 125v240h-49v68h130v-433h63v-68h-144v112l-166 -104c-11 -7 -23 -10 -36 -10c-40 0 -78 16 -78 77v358zM253 602c0 -25 -19 -44 -44 -44c-22 0 -42 19 -42 44c0 23 20 44 43 44c24 0 43 -21 43 -44zM401 602c0 -25 -19 -44 -44 -44
c-22 0 -42 19 -42 44c0 23 20 44 43 44c24 0 43 -21 43 -44z" />
    <glyph glyph-name="Yacute" unicode="&#xdd;" horiz-adv-x="556" 
d="M372 750h159v-68h-38l-175 -313v-301h65v-68h-210v68h63v301l-166 313h-45v68h162v-68h-36l127 -244l130 244h-36v68zM189 809l107 123h71l-105 -123h-73z" />
    <glyph glyph-name="yacute" unicode="&#xfd;" horiz-adv-x="515" 
d="M335 500h130v-633c0 -56 -25 -86 -92 -86h-231v136h68v-67h173v263l-176 -109c-15 -9 -31 -14 -46 -14c-31 0 -57 20 -57 65v377h-64v68h145v-431l199 125v238h-49v68zM168 559l107 123h71l-105 -123h-73z" />
    <glyph glyph-name="AEacute" unicode="&#x1fc;" horiz-adv-x="856" 
d="M532 69l179 -1v117h68v-185h-392v70h63v283h-172l-100 -285h60v-68h-194v68h58l218 614h-79v68h538v-185h-68v117h-179v-262h168v-67h-168v-284zM395 682l-93 -262h148v262h-55zM339 809l107 123h71l-105 -123h-73z" />
    <glyph glyph-name="Amacron" unicode="&#x100;" horiz-adv-x="641" 
d="M231 330h178l-89 352zM551 68h65v-68h-195v68h54l-50 199h-210l-50 -199h55v-68h-195v68h63l174 682h118zM193 825v63h255v-63h-255z" />
    <glyph glyph-name="Ccircumflex" unicode="&#x108;" horiz-adv-x="525" 
d="M407 68v117h68v-185h-307c-81 0 -108 48 -108 107v535c0 52 23 108 98 108h317v-185h-68v117h-265v-614h265zM298 932l107 -123h-73l-69 80l-70 -80h-74l112 123h67z" />
    <glyph glyph-name="Cdotaccent" unicode="&#x10a;" horiz-adv-x="525" 
d="M407 68v117h68v-185h-307c-81 0 -108 48 -108 107v535c0 52 23 108 98 108h317v-185h-68v117h-265v-614h265zM305 874c0 -25 -19 -44 -44 -44c-22 0 -42 19 -42 44c0 23 20 44 43 44c24 0 43 -21 43 -44z" />
    <glyph glyph-name="Gbreve" unicode="&#x11e;" 
d="M482 750v-185h-80v117h-260v-614h260v234l-139 -87v73l219 137v-425h-297c-93 0 -125 28 -125 124v511c0 61 23 115 107 115h315zM371 947h53c0 -85 -69 -153 -153 -153c-86 0 -154 70 -154 153h53c1 -53 45 -99 101 -99c55 0 100 46 100 99z" />
    <glyph glyph-name="Gcircumflex" unicode="&#x11c;" 
d="M482 750v-185h-80v117h-260v-614h260v234l-139 -87v73l219 137v-425h-297c-93 0 -125 28 -125 124v511c0 61 23 115 107 115h315zM307 932l107 -123h-73l-69 80l-70 -80h-74l112 123h67z" />
    <glyph glyph-name="uniF6C3" unicode="&#xf6c3;" horiz-adv-x="182" 
d="M-40 -198l107 123h71l-105 -123h-73z" />
    <glyph glyph-name="uni0162" unicode="&#x162;" horiz-adv-x="529" 
d="M160 0v68h63v614h-126v-118h-72v186h479v-186h-73v118h-126v-614h65v-68h-210zM241 -75l-107 -123h73l105 123h-71z" />
    <glyph glyph-name="uni0122" unicode="&#x122;" 
d="M482 750v-185h-80v117h-260v-614h260v234l-139 -87v73l219 137v-425h-297c-93 0 -125 28 -125 124v511c0 61 23 115 107 115h315zM289 -75l-107 -123h73l105 123h-71z" />
    <glyph glyph-name="Gdotaccent" unicode="&#x120;" 
d="M482 750v-185h-80v117h-260v-614h260v234l-139 -87v73l219 137v-425h-297c-93 0 -125 28 -125 124v511c0 61 23 115 107 115h315zM314 874c0 -25 -19 -44 -44 -44c-22 0 -42 19 -42 44c0 23 20 44 43 44c24 0 43 -21 43 -44z" />
    <glyph glyph-name="Hcircumflex" unicode="&#x124;" horiz-adv-x="698" 
d="M633 682h-63v-614h63v-68h-206v68h61v286h-278v-286h61v-68h-206v68h63v614h-63v68h206v-68h-61v-261h278v261h-61v68h206v-68zM385 932l107 -123h-73l-69 80l-70 -80h-74l112 123h67z" />
    <glyph glyph-name="Hbar" unicode="&#x126;" horiz-adv-x="698" 
d="M69 500v63h59v119h-63v68h206v-68h-61v-119h278v119h-61v68h206v-68h-63v-119h60v-63h-60v-432h63v-68h-206v68h61v286h-278v-286h61v-68h-206v68h63v432h-59zM210 421h278v79h-278v-79z" />
    <glyph glyph-name="Ibreve" unicode="&#x12c;" horiz-adv-x="370" 
d="M225 682v-614h65v-68h-210v68h63v614h-63v68h210v-68h-65zM285 947h53c0 -85 -69 -153 -153 -153c-86 0 -154 70 -154 153h53c1 -53 45 -99 101 -99c55 0 100 46 100 99z" />
    <glyph glyph-name="Idieresis" unicode="&#xcf;" horiz-adv-x="370" 
d="M225 682v-614h65v-68h-210v68h63v614h-63v68h210v-68h-65zM154 852c0 -25 -19 -44 -44 -44c-22 0 -42 19 -42 44c0 23 20 44 43 44c24 0 43 -21 43 -44zM302 852c0 -25 -19 -44 -44 -44c-22 0 -42 19 -42 44c0 23 20 44 43 44c24 0 43 -21 43 -44z" />
    <glyph glyph-name="Idotaccent" unicode="&#x130;" horiz-adv-x="370" 
d="M225 682v-614h65v-68h-210v68h63v614h-63v68h210v-68h-65zM228 874c0 -25 -19 -44 -44 -44c-22 0 -42 19 -42 44c0 23 20 44 43 44c24 0 43 -21 43 -44z" />
    <glyph glyph-name="Igrave" unicode="&#xcc;" horiz-adv-x="370" 
d="M225 682v-614h65v-68h-210v68h63v614h-63v68h210v-68h-65zM167 932l107 -123h-73l-105 123h71z" />
    <glyph glyph-name="Imacron" unicode="&#x12a;" horiz-adv-x="370" 
d="M225 682v-614h65v-68h-210v68h63v614h-63v68h210v-68h-65zM57 825v63h255v-63h-255z" />
    <glyph glyph-name="Iogonek" unicode="&#x12e;" horiz-adv-x="370" 
d="M225 682v-614h65v-68h-210v68h63v614h-63v68h210v-68h-65zM290 0h-72l-44 -34c-40 -30 -54 -41 -54 -84v-31c0 -37 12 -68 68 -68h82v53h-88v75z" />
    <glyph glyph-name="Itilde" unicode="&#x128;" horiz-adv-x="370" 
d="M225 682v-614h65v-68h-210v68h63v614h-63v68h210v-68h-65zM312 916l38 -28c-9 -25 -52 -77 -100 -77c-49 0 -93 54 -136 54c-22 0 -34 -11 -53 -49l-41 30c9 24 50 76 93 76c52 0 111 -55 137 -55c25 0 51 24 62 49z" />
    <glyph glyph-name="Jcircumflex" unicode="&#x134;" horiz-adv-x="406" 
d="M341 750v-68h-65v-565c0 -54 -23 -117 -107 -117h-149v68h174v614h-64v68h211zM270 932l107 -123h-73l-69 80l-70 -80h-74l112 123h67z" />
    <glyph glyph-name="uni0136" unicode="&#x136;" horiz-adv-x="605" 
d="M511 68h64v-68h-114l-251 373v-305h65v-68h-210v68h63v614h-63v68h210v-68h-69v-279l255 347h108v-68h-67l-208 -292zM320 -75l-107 -123h73l105 123h-71z" />
    <glyph glyph-name="uni013B" unicode="&#x13b;" horiz-adv-x="528" 
d="M65 0v68h63v614h-63v68h210v-68h-65v-614h210v117h68v-185h-423zM282 -75l-107 -123h73l105 123h-71z" />
    <glyph glyph-name="Ldot" unicode="&#x13f;" horiz-adv-x="528" 
d="M65 0v68h63v614h-63v68h210v-68h-65v-614h210v117h68v-185h-423zM376 264c0 -29 -22 -51 -51 -51c-26 0 -50 22 -50 51c0 27 24 52 51 52c28 0 50 -25 50 -52z" />
    <glyph glyph-name="uni0145" unicode="&#x145;" horiz-adv-x="719" 
d="M654 750v-68h-63v-682h-98l-283 584v-516h65v-68h-210v68h63v614h-63v68h154l290 -596v528h-65v68h210zM377 -75l-107 -123h73l105 123h-71z" />
    <glyph glyph-name="Obreve" unicode="&#x14e;" 
d="M171 750h195c81 0 116 -45 116 -133v-481c0 -95 -27 -136 -111 -136h-192c-92 0 -119 48 -119 121v496c0 83 20 133 111 133zM140 682v-614h262v614h-262zM371 947h53c0 -85 -69 -153 -153 -153c-86 0 -154 70 -154 153h53c1 -53 45 -99 101 -99c55 0 100 46 100 99z" />
    <glyph glyph-name="Ograve" unicode="&#xd2;" 
d="M171 750h195c81 0 116 -45 116 -133v-481c0 -95 -27 -136 -111 -136h-192c-92 0 -119 48 -119 121v496c0 83 20 133 111 133zM140 682v-614h262v614h-262zM253 932l107 -123h-73l-105 123h71z" />
    <glyph glyph-name="Omacron" unicode="&#x14c;" 
d="M171 750h195c81 0 116 -45 116 -133v-481c0 -95 -27 -136 -111 -136h-192c-92 0 -119 48 -119 121v496c0 83 20 133 111 133zM140 682v-614h262v614h-262zM143 825v63h255v-63h-255z" />
    <glyph glyph-name="Ntilde" unicode="&#xd1;" horiz-adv-x="719" 
d="M654 750v-68h-63v-682h-98l-283 584v-516h65v-68h-210v68h63v614h-63v68h154l290 -596v528h-65v68h210zM486 916l38 -28c-9 -25 -52 -77 -100 -77c-49 0 -93 54 -136 54c-22 0 -34 -11 -53 -49l-41 30c9 24 50 76 93 76c52 0 111 -55 137 -55c25 0 51 24 62 49z" />
    <glyph glyph-name="Oslashacute" unicode="&#x1fe;" 
d="M66 -150l52 160c-44 17 -58 57 -58 111v496c0 83 20 133 111 133h188l39 120h77l-44 -134c35 -20 51 -60 51 -119v-481c0 -95 -27 -136 -111 -136h-179l-48 -150h-78zM140 682v-605l197 605h-197zM214 68h188v577zM182 809l107 123h71l-105 -123h-73z" />
    <glyph glyph-name="Otilde" unicode="&#xd5;" 
d="M171 750h195c81 0 116 -45 116 -133v-481c0 -95 -27 -136 -111 -136h-192c-92 0 -119 48 -119 121v496c0 83 20 133 111 133zM140 682v-614h262v614h-262zM398 916l38 -28c-9 -25 -52 -77 -100 -77c-49 0 -93 54 -136 54c-22 0 -34 -11 -53 -49l-41 30c9 24 50 76 93 76
c52 0 111 -55 137 -55c25 0 51 24 62 49z" />
    <glyph glyph-name="Scircumflex" unicode="&#x15c;" 
d="M140 522l248 -155c54 -38 94 -51 94 -106v-170c0 -64 -50 -91 -103 -91h-319v185h72v-117h270v195l-262 161c-47 26 -80 51 -80 100v126c0 83 37 100 111 100h302v-185h-72v117h-261v-160zM307 932l107 -123h-73l-69 80l-70 -80h-74l112 123h67z" />
    <glyph glyph-name="uni0218" unicode="&#x218;" 
d="M247 -75l-107 -123h73l105 123h-71zM140 522l248 -155c54 -38 94 -51 94 -106v-170c0 -64 -50 -91 -103 -91h-319v185h72v-117h270v195l-262 161c-47 26 -80 51 -80 100v126c0 83 37 100 111 100h302v-185h-72v117h-261v-160z" />
    <glyph glyph-name="Ubreve" unicode="&#x16c;" horiz-adv-x="682" 
d="M60 682v68h210v-68h-65v-614h272v614h-65v68h210v-68h-63v-578c0 -72 -30 -104 -90 -104h-257c-61 0 -89 36 -89 99v583h-63zM441 947h53c0 -85 -69 -153 -153 -153c-86 0 -154 70 -154 153h53c1 -53 45 -99 101 -99c55 0 100 46 100 99z" />
    <glyph glyph-name="Ucircumflex" unicode="&#xdb;" horiz-adv-x="682" 
d="M60 682v68h210v-68h-65v-614h272v614h-65v68h210v-68h-63v-578c0 -72 -30 -104 -90 -104h-257c-61 0 -89 36 -89 99v583h-63zM377 932l107 -123h-73l-69 80l-70 -80h-74l112 123h67z" />
    <glyph glyph-name="Ugrave" unicode="&#xd9;" horiz-adv-x="682" 
d="M60 682v68h210v-68h-65v-614h272v614h-65v68h210v-68h-63v-578c0 -72 -30 -104 -90 -104h-257c-61 0 -89 36 -89 99v583h-63zM323 932l107 -123h-73l-105 123h71z" />
    <glyph glyph-name="Umacron" unicode="&#x16a;" horiz-adv-x="682" 
d="M60 682v68h210v-68h-65v-614h272v614h-65v68h210v-68h-63v-578c0 -72 -30 -104 -90 -104h-257c-61 0 -89 36 -89 99v583h-63zM213 825v63h255v-63h-255z" />
    <glyph glyph-name="Uogonek" unicode="&#x172;" horiz-adv-x="682" 
d="M60 682v68h210v-68h-65v-614h272v614h-65v68h210v-68h-63v-578c0 -72 -30 -104 -90 -104h-257c-61 0 -89 36 -89 99v583h-63zM411 0h-72l-44 -34c-40 -30 -54 -41 -54 -84v-31c0 -37 12 -68 68 -68h82v53h-88v75z" />
    <glyph glyph-name="Utilde" unicode="&#x168;" horiz-adv-x="682" 
d="M60 682v68h210v-68h-65v-614h272v614h-65v68h210v-68h-63v-578c0 -72 -30 -104 -90 -104h-257c-61 0 -89 36 -89 99v583h-63zM468 916l38 -28c-9 -25 -52 -77 -100 -77c-49 0 -93 54 -136 54c-22 0 -34 -11 -53 -49l-41 30c9 24 50 76 93 76c52 0 111 -55 137 -55
c25 0 51 24 62 49z" />
    <glyph glyph-name="Wacute" unicode="&#x1e82;" horiz-adv-x="836" 
d="M646 750h165v-68h-48l-107 -682h-130l-108 681l-108 -681h-130l-107 682h-48v68h165v-68h-40l95 -614l105 682h136l105 -682l95 614h-40v68zM329 809l107 123h71l-105 -123h-73z" />
    <glyph glyph-name="Wcircumflex" unicode="&#x174;" horiz-adv-x="836" 
d="M646 750h165v-68h-48l-107 -682h-130l-108 681l-108 -681h-130l-107 682h-48v68h165v-68h-40l95 -614l105 682h136l105 -682l95 614h-40v68zM454 932l107 -123h-73l-69 80l-70 -80h-74l112 123h67z" />
    <glyph glyph-name="Wdieresis" unicode="&#x1e84;" horiz-adv-x="836" 
d="M646 750h165v-68h-48l-107 -682h-130l-108 681l-108 -681h-130l-107 682h-48v68h165v-68h-40l95 -614l105 682h136l105 -682l95 614h-40v68zM387 852c0 -25 -19 -44 -44 -44c-22 0 -42 19 -42 44c0 23 20 44 43 44c24 0 43 -21 43 -44zM535 852c0 -25 -19 -44 -44 -44
c-22 0 -42 19 -42 44c0 23 20 44 43 44c24 0 43 -21 43 -44z" />
    <glyph glyph-name="Wgrave" unicode="&#x1e80;" horiz-adv-x="836" 
d="M646 750h165v-68h-48l-107 -682h-130l-108 681l-108 -681h-130l-107 682h-48v68h165v-68h-40l95 -614l105 682h136l105 -682l95 614h-40v68zM400 932l107 -123h-73l-105 123h71z" />
    <glyph glyph-name="Ycircumflex" unicode="&#x176;" horiz-adv-x="556" 
d="M372 750h159v-68h-38l-175 -313v-301h65v-68h-210v68h63v301l-166 313h-45v68h162v-68h-36l127 -244l130 244h-36v68zM314 932l107 -123h-73l-69 80l-70 -80h-74l112 123h67z" />
    <glyph glyph-name="Ygrave" unicode="&#x1ef2;" horiz-adv-x="556" 
d="M372 750h159v-68h-38l-175 -313v-301h65v-68h-210v68h63v301l-166 313h-45v68h162v-68h-36l127 -244l130 244h-36v68zM260 932l107 -123h-73l-105 123h71z" />
    <glyph glyph-name="Tbar" unicode="&#x166;" horiz-adv-x="529" 
d="M137 356v63h86v263h-126v-118h-72v186h479v-186h-73v118h-126v-263h87v-63h-87v-288h65v-68h-210v68h63v288h-86z" />
    <glyph glyph-name="amacron" unicode="&#x101;" horiz-adv-x="493" 
d="M390 68h63v-68h-348c-69 0 -85 23 -85 88v37c0 48 7 59 68 96l220 137v74h-196v-58h-64v126h250c67 0 92 -30 92 -86v-346zM308 68v210l-208 -130v-80h208zM83 575v63h255v-63h-255z" />
    <glyph glyph-name="aeacute" unicode="&#x1fd;" horiz-adv-x="710" 
d="M142 432v-58h-64v126h489c65 0 93 -21 93 -88v-93l-264 -164v-87h185v58h79v-53c0 -40 -23 -73 -80 -73h-445c-69 0 -85 23 -85 88v35c0 48 7 61 68 98l200 118v93h-176zM396 432v-196l184 113v83h-184zM318 68v191l-188 -111v-80h188zM266 559l107 123h71l-105 -123h-73
z" />
    <glyph glyph-name="ccircumflex" unicode="&#x109;" horiz-adv-x="426" 
d="M386 126v-126h-249c-71 0 -87 40 -87 88v324c0 56 31 89 95 89h241v-127h-68v58h-188v-364h188v58h68zM249 682l107 -123h-73l-69 80l-70 -80h-74l112 123h67z" />
    <glyph glyph-name="cdotaccent" unicode="&#x10b;" horiz-adv-x="426" 
d="M386 126v-126h-249c-71 0 -87 40 -87 88v324c0 56 31 89 95 89h241v-127h-68v58h-188v-364h188v58h68zM256 624c0 -25 -19 -44 -44 -44c-22 0 -42 19 -42 44c0 23 20 44 43 44c24 0 43 -21 43 -44z" />
    <glyph glyph-name="ebreve" unicode="&#x115;" horiz-adv-x="465" 
d="M130 139v-71h206v58h79v-53c0 -40 -23 -73 -80 -73h-205c-57 0 -80 33 -80 73v329c0 65 31 99 103 99h169c65 0 93 -22 93 -89v-93zM130 432v-212l205 129v83h-205zM333 697h53c0 -85 -69 -153 -153 -153c-86 0 -154 70 -154 153h53c1 -53 45 -99 101 -99
c55 0 100 46 100 99z" />
    <glyph glyph-name="ecircumflex" unicode="&#xea;" horiz-adv-x="465" 
d="M130 139v-71h206v58h79v-53c0 -40 -23 -73 -80 -73h-205c-57 0 -80 33 -80 73v329c0 65 31 99 103 99h169c65 0 93 -22 93 -89v-93zM130 432v-212l205 129v83h-205zM268 682l107 -123h-73l-69 80l-70 -80h-74l112 123h67z" />
    <glyph glyph-name="edotaccent" unicode="&#x117;" horiz-adv-x="465" 
d="M130 139v-71h206v58h79v-53c0 -40 -23 -73 -80 -73h-205c-57 0 -80 33 -80 73v329c0 65 31 99 103 99h169c65 0 93 -22 93 -89v-93zM130 432v-212l205 129v83h-205zM275 624c0 -25 -19 -44 -44 -44c-22 0 -42 19 -42 44c0 23 20 44 43 44c24 0 43 -21 43 -44z" />
    <glyph glyph-name="egrave" unicode="&#xe8;" horiz-adv-x="465" 
d="M130 139v-71h206v58h79v-53c0 -40 -23 -73 -80 -73h-205c-57 0 -80 33 -80 73v329c0 65 31 99 103 99h169c65 0 93 -22 93 -89v-93zM130 432v-212l205 129v83h-205zM214 682l107 -123h-73l-105 123h71z" />
    <glyph glyph-name="emacron" unicode="&#x113;" horiz-adv-x="465" 
d="M130 139v-71h206v58h79v-53c0 -40 -23 -73 -80 -73h-205c-57 0 -80 33 -80 73v329c0 65 31 99 103 99h169c65 0 93 -22 93 -89v-93zM130 432v-212l205 129v83h-205zM105 575v63h255v-63h-255z" />
    <glyph glyph-name="gbreve" unicode="&#x11f;" horiz-adv-x="523" 
d="M483 432h-63v-565c0 -56 -25 -86 -92 -86h-242v136h68v-67h184v261l-171 -108c-15 -9 -30 -13 -45 -13c-40 0 -72 31 -72 71v351c0 63 16 88 85 88h348v-68zM338 192v240h-210v-372zM362 697h53c0 -85 -69 -153 -153 -153c-86 0 -154 70 -154 153h53
c1 -53 45 -99 101 -99c55 0 100 46 100 99z" />
    <glyph glyph-name="gcircumflex" unicode="&#x11d;" horiz-adv-x="523" 
d="M483 432h-63v-565c0 -56 -25 -86 -92 -86h-242v136h68v-67h184v261l-171 -108c-15 -9 -30 -13 -45 -13c-40 0 -72 31 -72 71v351c0 63 16 88 85 88h348v-68zM338 192v240h-210v-372zM297 682l107 -123h-73l-69 80l-70 -80h-74l112 123h67z" />
    <glyph glyph-name="uni0123" unicode="&#x123;" horiz-adv-x="523" 
d="M184 558l107 123h71l-105 -123h-73zM483 432h-63v-565c0 -56 -25 -86 -92 -86h-242v136h68v-67h184v261l-171 -108c-15 -9 -30 -13 -45 -13c-40 0 -72 31 -72 71v351c0 63 16 88 85 88h348v-68zM338 192v240h-210v-372z" />
    <glyph glyph-name="gdotaccent" unicode="&#x121;" horiz-adv-x="523" 
d="M483 432h-63v-565c0 -56 -25 -86 -92 -86h-242v136h68v-67h184v261l-171 -108c-15 -9 -30 -13 -45 -13c-40 0 -72 31 -72 71v351c0 63 16 88 85 88h348v-68zM338 192v240h-210v-372zM304 624c0 -25 -19 -44 -44 -44c-22 0 -42 19 -42 44c0 23 20 44 43 44
c24 0 43 -21 43 -44z" />
    <glyph glyph-name="hbar" unicode="&#x127;" horiz-adv-x="568" 
d="M42 541v63h61v78h-63v68h144v-146h113v-63h-113v-147l166 104c13 8 28 12 42 12c38 0 72 -28 72 -79v-363h64v-68h-193v68h48v370l-199 -125v-245h49v-68h-193v68h63v473h-61z" />
    <glyph glyph-name="hcircumflex" unicode="&#x125;" horiz-adv-x="568" 
d="M464 68h64v-68h-193v68h48v370l-199 -125v-245h49v-68h-193v68h63v614h-63v68h144v-356l166 104c13 8 28 12 42 12c38 0 72 -28 72 -79v-363zM386 750l107 -123h-73l-69 80l-70 -80h-74l112 123h67z" />
    <glyph glyph-name="dotlessi" unicode="&#x131;" horiz-adv-x="300" 
d="M195 500v-432h65v-68h-210v68h63v364h-63v68h145z" />
    <glyph glyph-name="itilde" unicode="&#x129;" horiz-adv-x="300" 
d="M195 500v-432h65v-68h-210v68h63v364h-63v68h145zM277 666l38 -28c-9 -25 -52 -77 -100 -77c-49 0 -93 54 -136 54c-22 0 -34 -11 -53 -49l-41 30c9 24 50 76 93 76c52 0 111 -55 137 -55c25 0 51 24 62 49z" />
    <glyph glyph-name="iogonek" unicode="&#x12f;" horiz-adv-x="300" 
d="M195 500v-432h65v-68h-210v68h63v364h-63v68h145zM204 633c0 -30 -22 -52 -52 -52c-26 0 -49 22 -49 52c0 27 23 51 50 51c29 0 51 -24 51 -51zM235 0h-72l-44 -34c-40 -30 -54 -41 -54 -84v-31c0 -37 12 -68 68 -68h82v53h-88v75z" />
    <glyph glyph-name="imacron" unicode="&#x12b;" horiz-adv-x="300" 
d="M195 500v-432h65v-68h-210v68h63v364h-63v68h145zM22 575v63h255v-63h-255z" />
    <glyph glyph-name="igrave" unicode="&#xec;" horiz-adv-x="300" 
d="M195 500v-432h65v-68h-210v68h63v364h-63v68h145zM132 682l107 -123h-73l-105 123h71z" />
    <glyph glyph-name="idieresis" unicode="&#xef;" horiz-adv-x="300" 
d="M195 500v-432h65v-68h-210v68h63v364h-63v68h145zM119 602c0 -25 -19 -44 -44 -44c-22 0 -42 19 -42 44c0 23 20 44 43 44c24 0 43 -21 43 -44zM267 602c0 -25 -19 -44 -44 -44c-22 0 -42 19 -42 44c0 23 20 44 43 44c24 0 43 -21 43 -44z" />
    <glyph glyph-name="ibreve" unicode="&#x12d;" horiz-adv-x="300" 
d="M195 500v-432h65v-68h-210v68h63v364h-63v68h145zM251 697h53c0 -85 -69 -153 -153 -153c-86 0 -154 70 -154 153h53c1 -53 45 -99 101 -99c55 0 100 46 100 99z" />
    <glyph glyph-name="uni0137" unicode="&#x137;" horiz-adv-x="507" 
d="M435 68h52v-68h-86l-217 252v-184h60v-68h-204v68h64v614h-64v68h140v-474l228 224h78v-68h-55l-163 -167zM271 -75l-107 -123h73l105 123h-71z" />
    <glyph glyph-name="kgreenlandic" unicode="&#x138;" horiz-adv-x="507" 
d="M435 68h52v-68h-86l-217 252v-184h60v-68h-204v68h64v364h-64v68h140v-224l228 224h78v-68h-55l-163 -167z" />
    <glyph glyph-name="uni013C" unicode="&#x13c;" horiz-adv-x="310" 
d="M195 750v-682h65v-68h-210v68h63v614h-63v68h145zM173 -75l-107 -123h73l105 123h-71z" />
    <glyph glyph-name="ldot" unicode="&#x140;" horiz-adv-x="335" 
d="M195 750v-682h65v-68h-210v68h63v614h-63v68h145zM327 264c0 -29 -22 -51 -51 -51c-26 0 -50 22 -50 51c0 27 24 52 51 52c28 0 50 -25 50 -52z" />
    <glyph glyph-name="napostrophe" unicode="&#x149;" horiz-adv-x="568" 
d="M464 68h64v-68h-193v68h48v372l-199 -125v-247h49v-68h-193v68h63v365h-63v67h144v-104l166 104c11 7 23 10 36 10c40 0 78 -16 78 -77v-365zM40 556l107 123h71l-105 -123h-73z" />
    <glyph glyph-name="uni0146" unicode="&#x146;" horiz-adv-x="568" 
d="M464 68h64v-68h-193v68h48v372l-199 -125v-247h49v-68h-193v68h63v365h-63v67h144v-104l166 104c11 7 23 10 36 10c40 0 78 -16 78 -77v-365zM302 -75l-107 -123h73l105 123h-71z" />
    <glyph glyph-name="ntilde" unicode="&#xf1;" horiz-adv-x="568" 
d="M464 68h64v-68h-193v68h48v372l-199 -125v-247h49v-68h-193v68h63v365h-63v67h144v-104l166 104c11 7 23 10 36 10c40 0 78 -16 78 -77v-365zM411 666l38 -28c-9 -25 -52 -77 -100 -77c-49 0 -93 54 -136 54c-22 0 -34 -11 -53 -49l-41 30c9 24 50 76 93 76
c52 0 111 -55 137 -55c25 0 51 24 62 49z" />
    <glyph glyph-name="obreve" unicode="&#x14f;" horiz-adv-x="451" 
d="M318 0h-185c-68 0 -93 34 -93 89v322c0 53 18 89 93 89h185c73 0 93 -36 93 -89v-322c0 -55 -25 -89 -93 -89zM121 432v-364h209v364h-209zM326 697h53c0 -85 -69 -153 -153 -153c-86 0 -154 70 -154 153h53c1 -53 45 -99 101 -99c55 0 100 46 100 99z" />
    <glyph glyph-name="ograve" unicode="&#xf2;" horiz-adv-x="451" 
d="M318 0h-185c-68 0 -93 34 -93 89v322c0 53 18 89 93 89h185c73 0 93 -36 93 -89v-322c0 -55 -25 -89 -93 -89zM121 432v-364h209v364h-209zM207 682l107 -123h-73l-105 123h71z" />
    <glyph glyph-name="omacron" unicode="&#x14d;" horiz-adv-x="451" 
d="M318 0h-185c-68 0 -93 34 -93 89v322c0 53 18 89 93 89h185c73 0 93 -36 93 -89v-322c0 -55 -25 -89 -93 -89zM121 432v-364h209v364h-209zM98 575v63h255v-63h-255z" />
    <glyph glyph-name="oslashacute" unicode="&#x1ff;" horiz-adv-x="451" 
d="M94 -85l25 85c-58 5 -79 38 -79 89v322c0 53 18 89 93 89h136l19 63h71l-19 -64c55 -7 71 -41 71 -88v-322c0 -55 -25 -89 -93 -89h-128l-25 -85h-71zM121 432v-364h18l109 364h-127zM330 432h-10l-109 -364h119v364zM141 558l107 123h71l-105 -123h-73z" />
    <glyph glyph-name="otilde" unicode="&#xf5;" horiz-adv-x="451" 
d="M318 0h-185c-68 0 -93 34 -93 89v322c0 53 18 89 93 89h185c73 0 93 -36 93 -89v-322c0 -55 -25 -89 -93 -89zM121 432v-364h209v364h-209zM352 666l38 -28c-9 -25 -52 -77 -100 -77c-49 0 -93 54 -136 54c-22 0 -34 -11 -53 -49l-41 30c9 24 50 76 93 76
c52 0 111 -55 137 -55c25 0 51 24 62 49z" />
    <glyph glyph-name="uni0157" unicode="&#x157;" horiz-adv-x="461" 
d="M421 334h-81v97l-156 -99v-264h49v-68h-193v68h63v365h-63v68h144v-88l123 77c11 7 23 10 36 10c40 0 78 -16 78 -77v-89zM146 -75l-107 -123h73l105 123h-71z" />
    <glyph glyph-name="scircumflex" unicode="&#x15d;" horiz-adv-x="439" 
d="M129 348l170 -106c55 -34 90 -48 90 -92v-62c0 -48 -18 -88 -86 -88h-242v151h68v-83h180v83l-164 103c-67 43 -95 47 -95 100v57c0 49 18 89 94 89h233v-150h-68v82h-180v-84zM255 682l107 -123h-73l-69 80l-70 -80h-74l112 123h67z" />
    <glyph glyph-name="uni0219" unicode="&#x219;" horiz-adv-x="439" 
d="M129 348l170 -106c55 -34 90 -48 90 -92v-62c0 -48 -18 -88 -86 -88h-242v151h68v-83h180v83l-164 103c-67 43 -95 47 -95 100v57c0 49 18 89 94 89h233v-150h-68v82h-180v-84zM237 -75l-107 -123h73l105 123h-71z" />
    <glyph glyph-name="uni0163" unicode="&#x163;" horiz-adv-x="317" 
d="M114 682h78v-182h81v-72h-81v-360h95v-68h-84c-60 0 -89 29 -89 104v324h-74v72h74v182zM209 -75l-107 -123h73l105 123h-71z" />
    <glyph glyph-name="tbar" unicode="&#x167;" horiz-adv-x="317" 
d="M40 291v63h74v74h-74v72h74v182h78v-182h81v-72h-81v-74h80v-63h-80v-223h95v-68h-84c-60 0 -89 29 -89 104v187h-74z" />
    <glyph glyph-name="ubreve" unicode="&#x16d;" horiz-adv-x="568" 
d="M104 433h-64v68h145v-433l199 125v240h-49v68h130v-433h63v-68h-144v112l-166 -104c-11 -7 -23 -10 -36 -10c-40 0 -78 16 -78 77v358zM384 697h53c0 -85 -69 -153 -153 -153c-86 0 -154 70 -154 153h53c1 -53 45 -99 101 -99c55 0 100 46 100 99z" />
    <glyph glyph-name="ucircumflex" unicode="&#xfb;" horiz-adv-x="568" 
d="M104 433h-64v68h145v-433l199 125v240h-49v68h130v-433h63v-68h-144v112l-166 -104c-11 -7 -23 -10 -36 -10c-40 0 -78 16 -78 77v358zM320 682l107 -123h-73l-69 80l-70 -80h-74l112 123h67z" />
    <glyph glyph-name="ugrave" unicode="&#xf9;" horiz-adv-x="568" 
d="M104 433h-64v68h145v-433l199 125v240h-49v68h130v-433h63v-68h-144v112l-166 -104c-11 -7 -23 -10 -36 -10c-40 0 -78 16 -78 77v358zM266 682l107 -123h-73l-105 123h71z" />
    <glyph glyph-name="umacron" unicode="&#x16b;" horiz-adv-x="568" 
d="M104 433h-64v68h145v-433l199 125v240h-49v68h130v-433h63v-68h-144v112l-166 -104c-11 -7 -23 -10 -36 -10c-40 0 -78 16 -78 77v358zM156 575v63h255v-63h-255z" />
    <glyph glyph-name="uogonek" unicode="&#x173;" horiz-adv-x="568" 
d="M104 433h-64v68h145v-433l199 125v240h-49v68h130v-433h63v-68h-144v112l-166 -104c-11 -7 -23 -10 -36 -10c-40 0 -78 16 -78 77v358zM528 0h-72l-44 -34c-40 -30 -54 -41 -54 -84v-31c0 -37 12 -68 68 -68h82v53h-88v75z" />
    <glyph glyph-name="utilde" unicode="&#x169;" horiz-adv-x="568" 
d="M104 433h-64v68h145v-433l199 125v240h-49v68h130v-433h63v-68h-144v112l-166 -104c-11 -7 -23 -10 -36 -10c-40 0 -78 16 -78 77v358zM411 666l38 -28c-9 -25 -52 -77 -100 -77c-49 0 -93 54 -136 54c-22 0 -34 -11 -53 -49l-41 30c9 24 50 76 93 76
c52 0 111 -55 137 -55c25 0 51 24 62 49z" />
    <glyph glyph-name="wacute" unicode="&#x1e83;" horiz-adv-x="732" 
d="M20 432v68h159v-68h-44l81 -363l93 431h110l96 -433l82 365h-45v68h160v-68h-48l-95 -432h-107l-95 433l-97 -433h-112c0 1 -93 433 -95 432h-43zM277 559l107 123h71l-105 -123h-73z" />
    <glyph glyph-name="wcircumflex" unicode="&#x175;" horiz-adv-x="732" 
d="M20 432v68h159v-68h-44l81 -363l93 431h110l96 -433l82 365h-45v68h160v-68h-48l-95 -432h-107l-95 433l-97 -433h-112c0 1 -93 433 -95 432h-43zM402 682l107 -123h-73l-69 80l-70 -80h-74l112 123h67z" />
    <glyph glyph-name="wdieresis" unicode="&#x1e85;" horiz-adv-x="732" 
d="M20 432v68h159v-68h-44l81 -363l93 431h110l96 -433l82 365h-45v68h160v-68h-48l-95 -432h-107l-95 433l-97 -433h-112c0 1 -93 433 -95 432h-43zM335 602c0 -25 -19 -44 -44 -44c-22 0 -42 19 -42 44c0 23 20 44 43 44c24 0 43 -21 43 -44zM483 602
c0 -25 -19 -44 -44 -44c-22 0 -42 19 -42 44c0 23 20 44 43 44c24 0 43 -21 43 -44z" />
    <glyph glyph-name="wgrave" unicode="&#x1e81;" horiz-adv-x="732" 
d="M20 432v68h159v-68h-44l81 -363l93 431h110l96 -433l82 365h-45v68h160v-68h-48l-95 -432h-107l-95 433l-97 -433h-112c0 1 -93 433 -95 432h-43zM348 682l107 -123h-73l-105 123h71z" />
    <glyph glyph-name="ycircumflex" unicode="&#x177;" horiz-adv-x="515" 
d="M335 500h130v-633c0 -56 -25 -86 -92 -86h-231v136h68v-67h173v263l-176 -109c-15 -9 -31 -14 -46 -14c-31 0 -57 20 -57 65v377h-64v68h145v-431l199 125v238h-49v68zM293 682l107 -123h-73l-69 80l-70 -80h-74l112 123h67z" />
    <glyph glyph-name="ydieresis" unicode="&#xff;" horiz-adv-x="515" 
d="M335 500h130v-633c0 -56 -25 -86 -92 -86h-231v136h68v-67h173v263l-176 -109c-15 -9 -31 -14 -46 -14c-31 0 -57 20 -57 65v377h-64v68h145v-431l199 125v238h-49v68zM226 602c0 -25 -19 -44 -44 -44c-22 0 -42 19 -42 44c0 23 20 44 43 44c24 0 43 -21 43 -44zM374 602
c0 -25 -19 -44 -44 -44c-22 0 -42 19 -42 44c0 23 20 44 43 44c24 0 43 -21 43 -44z" />
    <glyph glyph-name="ygrave" unicode="&#x1ef3;" horiz-adv-x="515" 
d="M335 500h130v-633c0 -56 -25 -86 -92 -86h-231v136h68v-67h173v263l-176 -109c-15 -9 -31 -14 -46 -14c-31 0 -57 20 -57 65v377h-64v68h145v-431l199 125v238h-49v68zM239 682l107 -123h-73l-105 123h71z" />
    <glyph glyph-name="Eth" unicode="&#xd0;" horiz-adv-x="604" 
d="M56 421h67v261h-63v68h353c99 0 131 -43 131 -131v-488c0 -92 -42 -131 -131 -131h-353v68h63v287h-67v66zM462 68v614h-257v-261h142v-66h-142v-287h257z" />
    <glyph glyph-name="franc" unicode="&#x20a3;" horiz-adv-x="584" 
d="M64 487h64v195h-63v68h469v-185h-68v117h-256v-195h145v-66h-145v-67h143v-66h-143v-220h65v-68h-210v68h63v220h-66v66h66v67h-64v66z" />
    <glyph glyph-name="lira" unicode="&#x20a4;" horiz-adv-x="531" 
d="M34 317h86v111h-87v72h87v146c0 75 29 104 89 104h122v-68h-133v-182h120v-72h-120v-111h124v-66h-124v-183h213v117h68v-185h-446v68h87v183h-86v66z" />
    <glyph glyph-name="eth" unicode="&#xf0;" horiz-adv-x="460" 
d="M116 495h-83l114 94l-110 45v68l169 -64l107 88h87l-135 -110l65 -24c70 -26 86 -65 86 -113v-391c0 -52 -18 -87 -91 -87h-184c-78 0 -91 35 -91 87v109c0 53 27 85 91 121l202 129v25c0 21 -3 44 -41 56l-98 38zM124 67h219v299l-219 -137v-162z" />
    <glyph glyph-name="thorn" unicode="&#xfe;" horiz-adv-x="527" 
d="M185 306v-238h212v371zM41 -250v68h62v863h-63v69h145v-364l173 109c16 10 33 15 50 15c37 0 69 -23 69 -65v-351c0 -55 -15 -94 -90 -94h-202v-182h66v-68h-210z" />
    <glyph glyph-name="Thorn" unicode="&#xde;" horiz-adv-x="594" 
d="M422 619c88 0 112 -25 112 -124v-73c0 -83 -29 -91 -103 -137l-221 -138v-79h65v-68h-210v68h63v613h-63v69h210v-69h-64v-62h211zM461 382v168h-251v-323z" />
    <glyph glyph-name="uni0419" unicode="&#x419;" horiz-adv-x="665" 
d="M550 682v-614h65v-68h-147v555l-300 -555h-118v68h64v614h-64v68h145v-549l297 549h123v-68h-65zM439 933h53c0 -85 -69 -153 -153 -153c-86 0 -154 70 -154 153h53c1 -53 45 -99 101 -99c55 0 100 46 100 99z" />
    <glyph glyph-name="uni0439" unicode="&#x439;" horiz-adv-x="591" 
d="M482 430v-362h64v-68h-142v369l-219 -369h-140v70h64v360h-64v70h141v-366l218 366h142v-70h-64zM400 697h53c0 -85 -69 -153 -153 -153c-86 0 -154 70 -154 153h53c1 -53 45 -99 101 -99c55 0 100 46 100 99z" />
    <glyph glyph-name="uni040E" unicode="&#x40e;" horiz-adv-x="596" 
d="M260 161l-184 521h-51v68h174v-68h-52l150 -419l148 419h-67v68h193v-68h-53l-206 -583c-22 -62 -51 -99 -116 -99h-56v68h87zM391 937h53c0 -85 -69 -153 -153 -153c-86 0 -154 70 -154 153h53c1 -53 45 -99 101 -99c55 0 100 46 100 99z" />
    <glyph glyph-name="uni045E" unicode="&#x45e;" horiz-adv-x="529" 
d="M326 500h183v-68h-60l-176 -593c-17 -57 -38 -89 -96 -89h-63v67h78l45 154l-151 461h-61v68h182v-68h-47l112 -342l102 342h-48v68zM365 697h53c0 -85 -69 -153 -153 -153c-86 0 -154 70 -154 153h53c1 -53 45 -99 101 -99c55 0 100 46 100 99z" />
    <glyph glyph-name="uni0406" unicode="&#x406;" horiz-adv-x="370" 
d="M225 682v-614h65v-68h-210v68h63v614h-63v68h210v-68h-65z" />
    <glyph glyph-name="uni0407" unicode="&#x407;" horiz-adv-x="370" 
d="M225 682v-614h65v-68h-210v68h63v614h-63v68h210v-68h-65zM155 842c0 -25 -19 -44 -44 -44c-22 0 -42 19 -42 44c0 23 20 44 43 44c24 0 43 -21 43 -44zM303 842c0 -25 -19 -44 -44 -44c-22 0 -42 19 -42 44c0 23 20 44 43 44c24 0 43 -21 43 -44z" />
    <glyph glyph-name="uni0456" unicode="&#x456;" horiz-adv-x="300" 
d="M195 500v-432h65v-68h-210v68h63v364h-63v68h145zM94 581v101h101v-101h-101z" />
    <glyph glyph-name="uni0451" unicode="&#x451;" horiz-adv-x="465" 
d="M202 601c0 -25 -19 -44 -44 -44c-22 0 -42 19 -42 44c0 23 20 44 43 44c24 0 43 -21 43 -44zM350 601c0 -25 -19 -44 -44 -44c-22 0 -42 19 -42 44c0 23 20 44 43 44c24 0 43 -21 43 -44zM130 139v-71h206v58h79v-53c0 -40 -23 -73 -80 -73h-205c-57 0 -80 33 -80 73v329
c0 65 31 99 103 99h169c65 0 93 -22 93 -89v-93zM130 432v-212l205 129v83h-205z" />
    <glyph glyph-name="uni0401" unicode="&#x401;" horiz-adv-x="569" 
d="M280 842c0 -25 -19 -44 -44 -44c-22 0 -42 19 -42 44c0 23 20 44 43 44c24 0 43 -21 43 -44zM428 842c0 -25 -19 -44 -44 -44c-22 0 -42 19 -42 44c0 23 20 44 43 44c24 0 43 -21 43 -44zM346 493h68v-210h-68v71h-141v-286h256v117h68v-185h-469v68h63v614h-63v68h469
v-185h-68v117h-256v-260h141v71z" />
    <glyph glyph-name="uni0408" unicode="&#x408;" horiz-adv-x="406" 
d="M341 750v-68h-65v-565c0 -54 -23 -117 -107 -117h-149v68h174v614h-64v68h211z" />
    <glyph glyph-name="uni0458" unicode="&#x458;" horiz-adv-x="264" 
d="M204 500v-614c0 -56 -25 -86 -92 -86h-122v69h132v563h-63v68h145zM103 581v101h101v-101h-101z" />
    <glyph glyph-name="uni0405" unicode="&#x405;" 
d="M140 522l248 -155c54 -38 94 -51 94 -106v-170c0 -64 -50 -91 -103 -91h-319v185h72v-117h270v195l-262 161c-47 26 -80 51 -80 100v126c0 83 37 100 111 100h302v-185h-72v117h-261v-160z" />
    <glyph glyph-name="uni0455" unicode="&#x455;" horiz-adv-x="439" 
d="M129 348l170 -106c55 -34 90 -48 90 -92v-62c0 -48 -18 -88 -86 -88h-242v151h68v-83h180v83l-164 103c-67 43 -95 47 -95 100v57c0 49 18 89 94 89h233v-150h-68v82h-180v-84z" />
    <glyph glyph-name="uni0457" unicode="&#x457;" horiz-adv-x="300" 
d="M195 500v-432h65v-68h-210v68h63v364h-63v68h145zM95 584c0 -25 -19 -44 -44 -44c-22 0 -42 19 -42 44c0 23 20 44 43 44c24 0 43 -21 43 -44zM243 584c0 -25 -19 -44 -44 -44c-22 0 -42 19 -42 44c0 23 20 44 43 44c24 0 43 -21 43 -44z" />
    <glyph glyph-name="uni0403" unicode="&#x403;" horiz-adv-x="518" 
d="M209 805l107 123h71l-105 -123h-73zM205 682v-614h65v-68h-210v68h63v614h-63v68h433v-185h-68v117h-220z" />
    <glyph glyph-name="uni0453" unicode="&#x453;" horiz-adv-x="442" 
d="M157 559l107 123h71l-105 -123h-73zM50 0v67h65v362h-65v71h367v-164h-70v93h-156v-362h77v-67h-218z" />
    <glyph glyph-name="uni040C" unicode="&#x40c;" horiz-adv-x="585" 
d="M233 798l107 123h71l-105 -123h-73zM496 68h64v-68h-114l-251 373v-305h65v-68h-210v68h63v614h-63v68h210v-68h-69v-279l255 347h108v-68h-67l-208 -292z" />
    <glyph glyph-name="uni045C" unicode="&#x45c;" horiz-adv-x="517" 
d="M180 559l107 123h71l-105 -123h-73zM45 432v68h204v-68h-64v-156l228 224h78v-68h-55l-163 -167l167 -197h52v-68h-86l-217 252v-184h60v-68h-204v68h64v364h-64z" />
    <glyph glyph-name="eogonek" unicode="&#x119;" horiz-adv-x="465" 
d="M130 139v-71h206v58h79v-53c0 -40 -23 -73 -80 -73h-205c-57 0 -80 33 -80 73v329c0 65 31 99 103 99h169c65 0 93 -22 93 -89v-93zM130 432v-212l205 129v83h-205zM328 0h-72l-44 -34c-40 -30 -54 -41 -54 -84v-31c0 -37 12 -68 68 -68h82v53h-88v75z" />
    <glyph glyph-name="Eacute" unicode="&#xc9;" horiz-adv-x="584" 
d="M351 493h68v-210h-68v71h-141v-286h256v117h68v-185h-469v68h63v614h-63v68h469v-185h-68v117h-256v-260h141v71zM203 809l107 123h71l-105 -123h-73z" />
    <glyph glyph-name="Ebreve" unicode="&#x114;" horiz-adv-x="584" 
d="M351 493h68v-210h-68v71h-141v-286h256v117h68v-185h-469v68h63v614h-63v68h469v-185h-68v117h-256v-260h141v71zM392 947h53c0 -85 -69 -153 -153 -153c-86 0 -154 70 -154 153h53c1 -53 45 -99 101 -99c55 0 100 46 100 99z" />
    <glyph glyph-name="Ecaron" unicode="&#x11a;" horiz-adv-x="584" 
d="M351 493h68v-210h-68v71h-141v-286h256v117h68v-185h-469v68h63v614h-63v68h469v-185h-68v117h-256v-260h141v71zM435 932l-107 -123h-67l-112 123h74l70 -80l69 80h73z" />
    <glyph glyph-name="Ecircumflex" unicode="&#xca;" horiz-adv-x="584" 
d="M351 493h68v-210h-68v71h-141v-286h256v117h68v-185h-469v68h63v614h-63v68h469v-185h-68v117h-256v-260h141v71zM328 932l107 -123h-73l-69 80l-70 -80h-74l112 123h67z" />
    <glyph glyph-name="Edieresis" unicode="&#xcb;" horiz-adv-x="584" 
d="M351 493h68v-210h-68v71h-141v-286h256v117h68v-185h-469v68h63v614h-63v68h469v-185h-68v117h-256v-260h141v71zM261 852c0 -25 -19 -44 -44 -44c-22 0 -42 19 -42 44c0 23 20 44 43 44c24 0 43 -21 43 -44zM409 852c0 -25 -19 -44 -44 -44c-22 0 -42 19 -42 44
c0 23 20 44 43 44c24 0 43 -21 43 -44z" />
    <glyph glyph-name="Edotaccent" unicode="&#x116;" horiz-adv-x="584" 
d="M351 493h68v-210h-68v71h-141v-286h256v117h68v-185h-469v68h63v614h-63v68h469v-185h-68v117h-256v-260h141v71zM335 874c0 -25 -19 -44 -44 -44c-22 0 -42 19 -42 44c0 23 20 44 43 44c24 0 43 -21 43 -44z" />
    <glyph glyph-name="Egrave" unicode="&#xc8;" horiz-adv-x="584" 
d="M351 493h68v-210h-68v71h-141v-286h256v117h68v-185h-469v68h63v614h-63v68h469v-185h-68v117h-256v-260h141v71zM274 932l107 -123h-73l-105 123h71z" />
    <glyph glyph-name="Emacron" unicode="&#x112;" horiz-adv-x="584" 
d="M351 493h68v-210h-68v71h-141v-286h256v117h68v-185h-469v68h63v614h-63v68h469v-185h-68v117h-256v-260h141v71zM164 825v63h255v-63h-255z" />
    <glyph glyph-name="Eogonek" unicode="&#x118;" horiz-adv-x="584" 
d="M351 493h68v-210h-68v71h-141v-286h256v117h68v-185h-469v68h63v614h-63v68h469v-185h-68v117h-256v-260h141v71zM534 0h-72l-44 -34c-40 -30 -54 -41 -54 -84v-31c0 -37 12 -68 68 -68h82v53h-88v75z" />
    <glyph glyph-name="Racute" unicode="&#x154;" horiz-adv-x="646" 
d="M575 68h56v-68h-198v68h54l-171 275l-106 -65v-210h65v-68h-210v68h63v614h-63v68h357c88 0 112 -26 112 -125v-62c0 -100 -33 -105 -156 -181zM210 682v-324l251 155v169h-251zM234 809l107 123h71l-105 -123h-73z" />
    <glyph glyph-name="Rcaron" unicode="&#x158;" horiz-adv-x="646" 
d="M575 68h56v-68h-198v68h54l-171 275l-106 -65v-210h65v-68h-210v68h63v614h-63v68h357c88 0 112 -26 112 -125v-62c0 -100 -33 -105 -156 -181zM210 682v-324l251 155v169h-251zM466 932l-107 -123h-67l-112 123h74l70 -80l69 80h73z" />
    <glyph glyph-name="uni0415" unicode="&#x415;" horiz-adv-x="584" 
d="M351 493h68v-210h-68v71h-141v-286h256v117h68v-185h-469v68h63v614h-63v68h469v-185h-68v117h-256v-260h141v71z" />
    <glyph glyph-name="uni042F" unicode="&#x42f;" horiz-adv-x="651" 
d="M20 68h56l197 314c-123 76 -156 81 -156 181v62c0 99 24 125 112 125h357v-68h-63v-614h63v-68h-210v68h65v210l-106 65l-171 -275h54v-68h-198v68zM441 358v324h-251v-169z" />
    <glyph glyph-name="uni0156" unicode="&#x156;" horiz-adv-x="646" 
d="M339 -75l-107 -123h73l105 123h-71zM575 68h56v-68h-198v68h54l-171 275l-106 -65v-210h65v-68h-210v68h63v614h-63v68h357c88 0 112 -26 112 -125v-62c0 -100 -33 -105 -156 -181zM210 682v-324l251 155v169h-251z" />
    <glyph glyph-name="Eng" unicode="&#x14a;" horiz-adv-x="719" 
d="M654 750v-68h-63v-782c0 -54 -23 -117 -107 -117h-149v68h174v151l-299 582v-516h65v-68h-210v68h63v614h-63v68h154l290 -563v495h-65v68h210z" />
    <glyph glyph-name="eng" unicode="&#x14b;" horiz-adv-x="568" 
d="M383 440l-199 -125v-247h49v-68h-193v68h63v365h-63v67h144v-104l166 104c11 7 23 10 36 10c40 0 78 -16 78 -77v-566c0 -56 -25 -86 -92 -86h-139v69h150v590z" />
    <glyph glyph-name="uni0412" unicode="&#x412;" horiz-adv-x="557" 
d="M372 476l4 3c15 9 33 13 49 13c38 0 72 -28 72 -86v-318c0 -47 -15 -88 -89 -88h-348v68h63v615h-62v67h209c70 0 102 -33 102 -89v-185zM205 371l86 54v258h-86v-312zM417 69v355l-212 -133v-222h212z" />
    </font>
</defs>
</svg>
